<?xml version="1.0" encoding="UTF-8"?>
<svg version="1.1" xmlns="http://www.w3.org/2000/svg" width="216" height="170">
<path d="M0 0 C1.04873559 0.97246511 2.0705289 1.97427552 3.07397461 2.9934082 C7.35140036 6.73886048 10.91829974 6.8619791 16.44140625 6.76171875 C17.32730942 6.76508743 18.21321259 6.76845612 19.1259613 6.77192688 C20.98922563 6.77162928 22.85254069 6.75649813 24.71557617 6.72729492 C27.55865465 6.68755375 30.39707692 6.70662636 33.24023438 6.73242188 C35.05730965 6.72486337 36.87437465 6.7139105 38.69140625 6.69921875 C39.53530411 6.70620285 40.37920197 6.71318695 41.24867249 6.72038269 C47.23444399 6.57791559 49.75246899 5.20675602 54 1 C59.19171643 -1.59585821 65.41630091 -0.12255545 70.6875 1.5625 C75.943278 3.314426 78.99407809 6.46366958 82 11 C83.28709657 13.8007475 84.06318413 16.6400796 84.8125 19.625 C85.04332275 20.49020264 85.27414551 21.35540527 85.51196289 22.24682617 C86.36479594 25.49218542 87.18075601 28.74599755 88 32 C88.38473062 33.48903126 88.77053862 34.97778443 89.15722656 36.46630859 C90.22397902 40.57804209 91.27176338 44.69424253 92.3074646 48.81390381 C92.72511221 50.47021189 93.14663958 52.12554683 93.57217407 53.77984619 C94.1757459 56.13766832 94.76005995 58.49951206 95.33984375 60.86328125 C95.52282013 61.56474777 95.70579651 62.26621429 95.89431763 62.98893738 C97.32280575 68.95632844 97.54436175 75.29540104 94.25 80.75 C91.70018941 84.43305974 89.33589441 87.06564224 85.125 88.75 C78.91145235 89.48100561 74.57207516 88.99241074 69 86 C63.62363135 81.2900489 60.17464541 75.38851925 56.37304688 69.41796875 C55.86708984 68.63808594 55.36113281 67.85820313 54.83984375 67.0546875 C54.38988037 66.34812012 53.93991699 65.64155273 53.47631836 64.91357422 C51.30100147 62.09397214 49.72711729 60.2478879 46.05064392 59.72021484 C43.54947817 59.58488645 41.06733425 59.55810219 38.5625 59.56640625 C37.6454126 59.5611644 36.7283252 59.55592255 35.78344727 59.55052185 C33.84685274 59.54410594 31.91021922 59.54543307 29.97363281 59.55395508 C27.0103628 59.56247022 24.04901735 59.53368987 21.0859375 59.50195312 C19.20312558 59.50034113 17.32031024 59.50091861 15.4375 59.50390625 C14.55199463 59.49267227 13.66648926 59.48143829 12.75415039 59.46986389 C7.80220705 59.48662275 7.80220705 59.48662275 3.5559082 61.8190918 C3.0424585 62.5387915 2.52900879 63.25849121 2 64 C1.58387451 64.56235352 1.16774902 65.12470703 0.73901367 65.70410156 C0.38556885 66.2606543 0.03212402 66.81720703 -0.33203125 67.390625 C-0.73462158 68.01428955 -1.13721191 68.6379541 -1.55200195 69.28051758 C-1.96796631 69.93044678 -2.38393066 70.58037598 -2.8125 71.25 C-11.86974523 85.07368937 -11.86974523 85.07368937 -17.4375 88.5 C-24.0492752 89.79010248 -29.13898658 89.47319314 -35 86 C-39.5189217 81.66427783 -41.34849764 77.99745169 -41.97506714 71.68206787 C-42.02325525 66.49839497 -40.66501584 61.59564715 -39.4296875 56.58984375 C-39.01252975 54.83952599 -39.01252975 54.83952599 -38.58694458 53.05384827 C-37.9972705 50.59719475 -37.40011005 48.14232748 -36.79589844 45.68920898 C-35.87825345 41.95075444 -34.99230212 38.20577115 -34.109375 34.45898438 C-33.53053471 32.06464674 -32.94986612 29.6707502 -32.3671875 27.27734375 C-32.10549774 26.16568344 -31.84380798 25.05402313 -31.57418823 23.90867615 C-29.40630125 15.24546722 -26.57930168 7.9280701 -18.80859375 2.96484375 C-13.31797382 0.03572253 -6.12469488 -1.53117372 0 0 Z " fill="#2A6FB9" transform="translate(81,54)"/>
<path d="M0 0 C2.38598633 0.17822266 2.38598633 0.17822266 5 1 C6.5456543 2.81005859 6.5456543 2.81005859 7.82421875 5.1484375 C8.29537109 5.98890625 8.76652344 6.829375 9.25195312 7.6953125 C9.72568359 8.57960938 10.19941406 9.46390625 10.6875 10.375 C11.64934537 12.11219749 12.61156944 13.84918537 13.57421875 15.5859375 C13.99276123 16.3598584 14.41130371 17.1337793 14.8425293 17.93115234 C15.8144562 19.66836149 16.89580694 21.34371041 18 23 C17.9375 25.5 17.9375 25.5 17 28 C13.01126545 30.82535364 8.61262486 32.44352396 4.0625 34.125 C3.02706055 34.52138672 3.02706055 34.52138672 1.97070312 34.92578125 C-1.97719795 36.40016326 -5.76342181 37.68430863 -10 38 C-10.66 37.34 -11.32 36.68 -12 36 C-11.9765625 33.8359375 -11.9765625 33.8359375 -11.625 31.375 C-11.51414062 30.55773437 -11.40328125 29.74046875 -11.2890625 28.8984375 C-11.19367188 28.27195312 -11.09828125 27.64546875 -11 27 C-12.134375 26.690625 -13.26875 26.38125 -14.4375 26.0625 C-15.07558594 25.88847656 -15.71367188 25.71445312 -16.37109375 25.53515625 C-23.27321618 24.13011795 -29.60604857 23.77407066 -36.5625 24.9375 C-37.71335083 25.12687134 -37.71335083 25.12687134 -38.88745117 25.32006836 C-46.12525876 26.69986599 -52.23765699 29.61218662 -58.64453125 33.16015625 C-61.40221176 34.67222554 -64.05518438 35.91742969 -67 37 C-67 37.66 -67 38.32 -67 39 C-68.50390625 40.41015625 -68.50390625 40.41015625 -70.5625 42.0625 C-81.64294139 51.57956341 -87.39871363 64.00552753 -91 78 C-93.475 78.495 -93.475 78.495 -96 79 C-98.95541407 65.70063666 -92.840238 51.0691432 -85.9765625 39.8828125 C-75.31721671 24.33617773 -58.55591593 12.03745856 -39.82421875 8.39453125 C-27.84579379 7.15875911 -15.6965041 6.97960645 -4 10 C-3.79503906 9.36191406 -3.59007813 8.72382813 -3.37890625 8.06640625 C-3.10949219 7.24011719 -2.84007813 6.41382813 -2.5625 5.5625 C-2.29566406 4.73878906 -2.02882813 3.91507812 -1.75390625 3.06640625 C-1 1 -1 1 0 0 Z " fill="#76E4EA" transform="translate(127,2)"/>
<path d="M0 0 C-0.33 3.3 -0.66 6.6 -1 10 C10.97801891 12.52168819 22.72771469 10.80659996 33.80859375 5.8046875 C36 5 36 5 40 5 C41.70884005 6.62339805 43.37446717 8.29319053 45 10 C47.16620544 11.29519995 47.16620544 11.29519995 49 12 C48.70068359 13.87280273 48.70068359 13.87280273 48 16 C45.54155088 17.5582141 43.23710426 18.82330246 40.625 20.0625 C39.62533203 20.57006836 39.62533203 20.57006836 38.60546875 21.08789062 C27.92691951 26.30604749 18.12298778 27.42628125 6.3125 27.1875 C5.02666016 27.17396484 3.74082031 27.16042969 2.41601562 27.14648438 C-0.72310855 27.11147556 -3.86132061 27.06237058 -7 27 C-7.17015625 27.56589844 -7.3403125 28.13179687 -7.515625 28.71484375 C-7.75796875 29.44832031 -8.0003125 30.18179688 -8.25 30.9375 C-8.48203125 31.66839844 -8.7140625 32.39929688 -8.953125 33.15234375 C-10 35 -10 35 -11.921875 35.94140625 C-14 36 -14 36 -15.58129883 34.82958984 C-18.30826426 31.31283215 -20.45289753 27.46563289 -22.6875 23.625 C-23.19861328 22.77421875 -23.70972656 21.9234375 -24.23632812 21.046875 C-24.71908203 20.21929687 -25.20183594 19.39171875 -25.69921875 18.5390625 C-26.14096436 17.78834473 -26.58270996 17.03762695 -27.0378418 16.26416016 C-28.15411044 13.6373458 -28.32346603 11.82682481 -28 9 C-24.02858293 5.76521674 -18.74033983 4.11997172 -14 2.25 C-12.80890625 1.75693359 -12.80890625 1.75693359 -11.59375 1.25390625 C-4.38792828 -1.59239333 -4.38792828 -1.59239333 0 0 Z " fill="#2968B1" transform="translate(105,133)"/>
<path d="M0 0 C9.2600619 3.4005877 15.97014341 16.94270972 21.07421875 24.76171875 C21.40421875 21.79171875 21.73421875 18.82171875 22.07421875 15.76171875 C20.75421875 15.10171875 19.43421875 14.44171875 18.07421875 13.76171875 C17.58929252 7.33644614 17.58929252 7.33644614 19.76171875 4.76171875 C22.71709961 3.48371622 24.06420258 3.68120013 27.07421875 4.76171875 C28.88671875 6.01171875 28.88671875 6.01171875 30.07421875 7.76171875 C30.44921875 10.26171875 30.44921875 10.26171875 30.07421875 12.76171875 C29.58566406 13.17035156 29.09710938 13.57898437 28.59375 14 C26.31817147 16.63826714 26.5561397 19.02691558 26.38671875 22.44921875 C26.32097656 23.62871094 26.25523437 24.80820312 26.1875 26.0234375 C26.15011719 26.92707031 26.11273438 27.83070312 26.07421875 28.76171875 C32.77958917 28.50781069 32.77958917 28.50781069 38.88671875 26.07421875 C39.60859375 25.64109375 40.33046875 25.20796875 41.07421875 24.76171875 C44.24857309 25.57376288 45.7560245 26.4435245 48.07421875 28.76171875 C48.51171875 31.13671875 48.51171875 31.13671875 48.07421875 33.76171875 C45.88671875 36.13671875 45.88671875 36.13671875 43.07421875 37.76171875 C40.38671875 37.69921875 40.38671875 37.69921875 38.07421875 36.76171875 C37.41421875 35.77171875 36.75421875 34.78171875 36.07421875 33.76171875 C33.17813476 33.39673841 33.17813476 33.39673841 29.94921875 33.57421875 C28.85351562 33.60128906 27.7578125 33.62835938 26.62890625 33.65625 C25.36433594 33.70845703 25.36433594 33.70845703 24.07421875 33.76171875 C24.21859375 34.47457031 24.36296875 35.18742187 24.51171875 35.921875 C25.55394195 41.29945718 26.31761395 46.28532667 26.07421875 51.76171875 C24.09421875 52.25671875 24.09421875 52.25671875 22.07421875 52.76171875 C21.82929688 51.79234375 21.584375 50.82296875 21.33203125 49.82421875 C16.65326849 32.58701437 7.53674566 18.49198065 -6.92578125 7.76171875 C-6.5933147 4.68640319 -6.29473369 3.14339369 -4.11328125 0.88671875 C-1.92578125 -0.23828125 -1.92578125 -0.23828125 0 0 Z M22.07421875 8.76171875 C22.07421875 9.75171875 22.07421875 10.74171875 22.07421875 11.76171875 C23.39421875 11.76171875 24.71421875 11.76171875 26.07421875 11.76171875 C25.74421875 10.77171875 25.41421875 9.78171875 25.07421875 8.76171875 C24.08421875 8.76171875 23.09421875 8.76171875 22.07421875 8.76171875 Z M40.07421875 29.76171875 C40.40421875 31.08171875 40.73421875 32.40171875 41.07421875 33.76171875 C42.06421875 33.43171875 43.05421875 33.10171875 44.07421875 32.76171875 C43.74421875 31.77171875 43.41421875 30.78171875 43.07421875 29.76171875 C42.08421875 29.76171875 41.09421875 29.76171875 40.07421875 29.76171875 Z " fill="#A7F4F2" transform="translate(148.92578125,29.23828125)"/>
<path d="M0 0 C2.80632106 2.22854907 5.10563481 4.49472184 6.09375 7.953125 C6.54709816 13.57464217 6.28308562 17.11413302 3.09375 21.953125 C-0.54557278 25.31249987 -3.74307028 27.60898277 -8.65625 28.390625 C-13.14402816 27.78650102 -16.48758058 25.90528089 -19.90625 22.953125 C-23.85154514 17.62652516 -23.82425707 12.35319314 -22.90625 5.953125 C-21.25205071 2.2559189 -18.78324671 0.42221626 -15.21875 -1.484375 C-10.06420399 -2.35967527 -4.70733892 -2.58517793 0 0 Z " fill="#9AF0F7" transform="translate(83.90625,74.046875)"/>
<path d="M0 0 C-0.54087318 3.78611227 -2.11722332 5.55400767 -5 8 C-5.66 8 -6.32 8 -7 8 C-7 8.66 -7 9.32 -7 10 C-7.66 10 -8.32 10 -9 10 C-9.37572144 10.81476807 -9.37572144 10.81476807 -9.7590332 11.64599609 C-11 14 -11 14 -12.79370117 16.62353516 C-18.80813459 25.49313299 -21.20370329 33.95413313 -23.3125 44.375 C-23.79152252 46.64242173 -24.2776478 48.90807219 -24.77055359 51.17251587 C-25.07164647 52.56518708 -25.36403323 53.9597838 -25.64558411 55.35653687 C-26.60021832 59.89928393 -28.07088333 63.80697529 -30 68 C-32.31459868 66.18182999 -32.95377187 65.24384457 -33.51171875 62.30078125 C-33.56972656 61.31464844 -33.62773438 60.32851562 -33.6875 59.3125 C-33.75324219 58.31863281 -33.81898437 57.32476562 -33.88671875 56.30078125 C-33.92410156 55.54152344 -33.96148437 54.78226563 -34 54 C-36.43717258 54.27034634 -36.43717258 54.27034634 -39 55 C-39.66 55.99 -40.32 56.98 -41 58 C-43.86076138 58.97868153 -45.38702769 59.22135111 -48.25 58.1875 C-50 57 -50 57 -51 55 C-51.3125 52.0625 -51.3125 52.0625 -51 49 C-49.3125 47.0625 -49.3125 47.0625 -47 46 C-43.62963689 46.24074022 -42.41201979 46.58798021 -40 49 C-37.67724823 49.40047444 -35.34260643 49.7397104 -33 50 C-32.84144531 49.12859375 -32.68289062 48.2571875 -32.51953125 47.359375 C-28.93937339 29.08276801 -20.44559826 12.14476582 -5 1 C-2 0 -2 0 0 0 Z M-46 50 C-46.33 51.32 -46.66 52.64 -47 54 C-45.68 53.67 -44.36 53.34 -43 53 C-43.33 52.01 -43.66 51.02 -44 50 C-44.66 50 -45.32 50 -46 50 Z " fill="#A7F1EF" transform="translate(70,37)"/>
<path d="M0 0 C4.17391918 0.39376596 6.1512186 1.59232763 9.3125 4.3125 C10.1875 7.0625 10.1875 7.0625 10.3125 9.3125 C11.09625 9.374375 11.88 9.43625 12.6875 9.5 C15.3125 10.3125 15.3125 10.3125 16.6875 12.5625 C17.53928968 16.31037458 17.01653301 18.90443398 15.3125 22.3125 C14.36375 22.56 13.415 22.8075 12.4375 23.0625 C9.05769837 24.04293937 9.05769837 24.04293937 7.5625 27.3125 C7.15 28.3025 6.7375 29.2925 6.3125 30.3125 C4.3125 32.3125 4.3125 32.3125 1.8125 32.5625 C-0.6875 32.3125 -0.6875 32.3125 -2.6875 30.3125 C-2.8828125 28.1484375 -2.8828125 28.1484375 -2.8125 25.6875 C-2.79445312 24.87023437 -2.77640625 24.05296875 -2.7578125 23.2109375 C-2.73460937 22.58445312 -2.71140625 21.95796875 -2.6875 21.3125 C-1.0375 20.9825 0.6125 20.6525 2.3125 20.3125 C1.80646008 18.14375748 1.31266187 16.31282373 0.3125 14.3125 C-1.64644361 14.42556697 -1.64644361 14.42556697 -3.6875 15.3125 C-3.996875 16.1375 -4.30625 16.9625 -4.625 17.8125 C-5.6875 20.3125 -5.6875 20.3125 -8.125 21.3125 C-10.6875 21.3125 -10.6875 21.3125 -12.5625 20.3125 C-14.30770832 17.20990743 -13.38747967 14.6851293 -12.6875 11.3125 C-10.35455225 11.27008277 -8.02047433 11.27157063 -5.6875 11.3125 C-5.3575 11.6425 -5.0275 11.9725 -4.6875 12.3125 C-4.62691406 11.53003906 -4.56632813 10.74757813 -4.50390625 9.94140625 C-4.42011719 8.92949219 -4.33632812 7.91757813 -4.25 6.875 C-4.16878906 5.86566406 -4.08757812 4.85632813 -4.00390625 3.81640625 C-3.56771928 0.36460569 -3.48220565 0.40490763 0 0 Z " fill="#3B8DC4" transform="translate(138.6875,69.6875)"/>
<path d="M0 0 C0 3 0 3 -1 6 C-0.34 6 0.32 6 1 6 C1.99 7.485 1.99 7.485 3 9 C3.99 8.67 4.98 8.34 6 8 C6.33 7.34 6.66 6.68 7 6 C8.97888961 5.27306096 10.97954558 4.60183749 13 4 C12.154375 4.969375 11.30875 5.93875 10.4375 6.9375 C9.28997304 8.29023178 8.14425427 9.64449878 7 11 C6.13568359 11.99580078 6.13568359 11.99580078 5.25390625 13.01171875 C-2.01151354 21.76582144 -6.1826615 32.05192143 -9 43 C-11.475 43.495 -11.475 43.495 -14 44 C-17.04372029 30.3032587 -10.50216837 15.90535437 -3.5859375 4.3984375 C-2 2 -2 2 0 0 Z " fill="#73CEEC" transform="translate(45,37)"/>
<path d="M0 0 C6.540545 2.40189505 11.20896612 10.26739368 15.07421875 15.76171875 C15.64914063 16.55449219 16.2240625 17.34726562 16.81640625 18.1640625 C17.37585938 18.95941406 17.9353125 19.75476563 18.51171875 20.57421875 C19.02605469 21.30253906 19.54039062 22.03085937 20.0703125 22.78125 C20.40160156 23.43480469 20.73289063 24.08835937 21.07421875 24.76171875 C20.74421875 25.75171875 20.41421875 26.74171875 20.07421875 27.76171875 C18.42421875 27.10171875 16.77421875 26.44171875 15.07421875 25.76171875 C16.13296949 29.16484613 17.08324029 31.77525106 19.07421875 34.76171875 C18.69921875 36.94921875 18.69921875 36.94921875 18.07421875 38.76171875 C17.72230469 38.15585938 17.37039062 37.55 17.0078125 36.92578125 C10.36858157 25.65815696 3.58753505 15.72635231 -6.92578125 7.76171875 C-6.5933147 4.68640319 -6.29473369 3.14339369 -4.11328125 0.88671875 C-1.92578125 -0.23828125 -1.92578125 -0.23828125 0 0 Z " fill="#A6F1EE" transform="translate(148.92578125,29.23828125)"/>
<path d="M0 0 C1.134375 0.020625 2.26875 0.04125 3.4375 0.0625 C3.4375 2.3725 3.4375 4.6825 3.4375 7.0625 C5.7475 7.0625 8.0575 7.0625 10.4375 7.0625 C10.47991723 9.39544775 10.47842937 11.72952567 10.4375 14.0625 C9.4375 15.0625 9.4375 15.0625 6.375 15.125 C5.405625 15.104375 4.43625 15.08375 3.4375 15.0625 C3.4375 17.0425 3.4375 19.0225 3.4375 21.0625 C0.7975 21.0625 -1.8425 21.0625 -4.5625 21.0625 C-4.5625 19.0825 -4.5625 17.1025 -4.5625 15.0625 C-6.5425 15.0625 -8.5225 15.0625 -10.5625 15.0625 C-10.5625 12.4225 -10.5625 9.7825 -10.5625 7.0625 C-8.5825 7.0625 -6.6025 7.0625 -4.5625 7.0625 C-4.583125 6.093125 -4.60375 5.12375 -4.625 4.125 C-4.53542298 -0.264274 -4.48106193 0.07861512 0 0 Z " fill="#2A688E" transform="translate(75.5625,75.9375)"/>
<path d="M0 0 C2.38598633 0.17822266 2.38598633 0.17822266 5 1 C6.5456543 2.81005859 6.5456543 2.81005859 7.82421875 5.1484375 C8.53094727 6.40914062 8.53094727 6.40914062 9.25195312 7.6953125 C9.96254883 9.02175781 9.96254883 9.02175781 10.6875 10.375 C11.64934537 12.11219749 12.61156944 13.84918537 13.57421875 15.5859375 C13.99276123 16.3598584 14.41130371 17.1337793 14.8425293 17.93115234 C15.8144562 19.66836149 16.89580694 21.34371041 18 23 C17.8125 25.5625 17.8125 25.5625 17 28 C16.01 28.66 15.02 29.32 14 30 C14.29296875 28.01432292 14.5859375 26.02864583 14.87890625 24.04296875 C15.13904799 21.7974658 15.13904799 21.7974658 14 19 C13.34 19 12.68 19 12 19 C12 18.34 12 17.68 12 17 C11.01 17 10.02 17 9 17 C8.505 15.515 8.505 15.515 8 14 C7.01 14 6.02 14 5 14 C5 13.34 5 12.68 5 12 C0.76709796 10.9486845 0.76709796 10.9486845 -3.3125 12.0625 C-6.66893194 13.23334835 -8.67257029 12.38593352 -12.02734375 11.5234375 C-22.23039394 9.72684259 -33.19738573 10.66068437 -43.30078125 12.5625 C-45.9207961 12.98716232 -48.35149471 13.07718777 -51 13 C-44.77698016 6.77698016 -32.45205639 7.70979711 -24.25 7.6875 C-23.2803833 7.68218262 -22.3107666 7.67686523 -21.31176758 7.67138672 C-15.25830575 7.73032383 -9.86239552 8.48615095 -4 10 C-3.79503906 9.36191406 -3.59007812 8.72382813 -3.37890625 8.06640625 C-3.10949219 7.24011719 -2.84007812 6.41382813 -2.5625 5.5625 C-2.29566406 4.73878906 -2.02882812 3.91507812 -1.75390625 3.06640625 C-1 1 -1 1 0 0 Z " fill="#84E4E3" transform="translate(127,2)"/>
<path d="M0 0 C1.32 0.66 2.64 1.32 4 2 C4.08858959 5.60400627 4.14091522 9.20772545 4.1875 12.8125 C4.21263672 13.81732422 4.23777344 14.82214844 4.26367188 15.85742188 C4.33284884 23.02876725 3.23677823 29.19047709 1 36 C0.01 36 -0.98 36 -2 36 C-4.99968582 26.28673164 -5.51468354 19.07342094 -3.625 9.125 C-3.49915527 8.45758789 -3.37331055 7.79017578 -3.24365234 7.10253906 C-2.2450426 2.2450426 -2.2450426 2.2450426 0 0 Z " fill="#2E66A5" transform="translate(180,77)"/>
<path d="M0 0 C2.5 0.25 2.5 0.25 4.5 2.25 C4.8125 4.75 4.8125 4.75 4.5 7.25 C1.5 9.25 1.5 9.25 -1 8.9375 C-2.84904262 8.42901328 -4.68072387 7.85642538 -6.5 7.25 C-7.83525717 7.17026524 -9.17412083 7.14228662 -10.51171875 7.15234375 C-11.26904297 7.15556641 -12.02636719 7.15878906 -12.80664062 7.16210938 C-13.98516602 7.17467773 -13.98516602 7.17467773 -15.1875 7.1875 C-15.98478516 7.19201172 -16.78207031 7.19652344 -17.60351562 7.20117188 C-19.56904257 7.2129415 -21.53453085 7.23087652 -23.5 7.25 C-23.5 10.55 -23.5 13.85 -23.5 17.25 C-24.82 17.25 -26.14 17.25 -27.5 17.25 C-27.55386629 15.12527424 -27.59273071 13.00016348 -27.625 10.875 C-27.64820312 9.69164062 -27.67140625 8.50828125 -27.6953125 7.2890625 C-27.5 4.25 -27.5 4.25 -25.5 2.25 C-23.37695312 2.0546875 -23.37695312 2.0546875 -20.78125 2.125 C-19.84925781 2.14046875 -18.91726562 2.1559375 -17.95703125 2.171875 C-15.98567708 2.22395833 -14.01432292 2.27604167 -12.04296875 2.328125 C-11.11097656 2.34359375 -10.17898437 2.3590625 -9.21875 2.375 C-8.36216797 2.39820313 -7.50558594 2.42140625 -6.62304688 2.4453125 C-3.58932783 2.16622151 -3.13621464 0.31362146 0 0 Z " fill="#B1E0E7" transform="translate(134.5,39.75)"/>
<path d="M0 0 C-0.54087318 3.78611227 -2.11722332 5.55400767 -5 8 C-5.66 8 -6.32 8 -7 8 C-7 8.66 -7 9.32 -7 10 C-7.66 10 -8.32 10 -9 10 C-9.24878906 10.53625 -9.49757813 11.0725 -9.75390625 11.625 C-11.29090796 14.5544578 -13.1189208 17.23657239 -14.9375 20 C-18.79743175 26.03850633 -20.7727129 31.90474648 -22 39 C-22.33 39 -22.66 39 -23 39 C-23.33 36.03 -23.66 33.06 -24 30 C-24.99 30 -25.98 30 -27 30 C-24.36773159 18.88597782 -14.16250203 7.61120001 -5 1 C-2 0 -2 0 0 0 Z " fill="#A0E9E9" transform="translate(70,37)"/>
<path d="M0 0 C5.78719943 1.87692955 7.45959121 4.8558771 10.125 10.0625 C11.27349605 12.38174977 12.17760961 14.53282882 13 17 C13.66 17 14.32 17 15 17 C15.9590625 18.4540625 15.9590625 18.4540625 16.9375 19.9375 C18.71061007 23.24255225 18.71061007 23.24255225 22 24 C22 23.34 22 22.68 22 22 C24.86724686 22.57344937 25.8614515 22.8614515 28 25 C30.57540213 24.83492354 30.57540213 24.83492354 33 24 C33.33 23.34 33.66 22.68 34 22 C35.64363134 21.27840576 37.31050386 20.60648579 39 20 C38.505 18.02 38.505 18.02 38 16 C38.99 16 39.98 16 41 16 C42.68236471 15.37400383 44.3523962 14.71247732 46 14 C45.62794502 19.20876968 43.90537622 22.5878285 40 26 C35.20131665 28.66593519 31.46254307 29.58527247 26 29 C16.91721454 26.02460476 12.78846657 19.53884963 7.8125 11.875 C7.01295898 10.65876953 7.01295898 10.65876953 6.19726562 9.41796875 C5.21192034 7.91826083 4.22896538 6.41697749 3.24926758 4.91357422 C2.17585087 3.26936078 1.08920031 1.63380046 0 0 Z " fill="#256AB5" transform="translate(131,114)"/>
<path d="M0 0 C0.2475 1.11375 0.495 2.2275 0.75 3.375 C1.57844683 6.96505893 1.57844683 6.96505893 3.6875 8.125 C4.8321875 8.558125 4.8321875 8.558125 6 9 C8.61601465 10.40083365 10.95895376 11.82963127 13 14 C13.4375 17.8125 13.4375 17.8125 13 21 C12.34 21.33 11.68 21.66 11 22 C9 21 9 21 8.25 18.75 C6.61550578 15.15411271 4.52190706 12.75352335 1 11 C-1.37166398 10.82192284 -3.63141331 10.93437882 -6.00390625 11.06640625 C-8 11 -8 11 -10.125 9.375 C-11.30519898 6.17160276 -10.98667706 4.24193891 -10 1 C-6.1496895 -1.56687367 -4.41430237 -0.83288724 0 0 Z M-6 3 C-6 4.32 -6 5.64 -6 7 C-5.01 6.67 -4.02 6.34 -3 6 C-3.33 5.01 -3.66 4.02 -4 3 C-4.66 3 -5.32 3 -6 3 Z " fill="#527E9F" transform="translate(90,36)"/>
<path d="M0 0 C0.87840996 3.09720845 0.99435406 4.90645403 0 8 C0.66 8 1.32 8 2 8 C2.33 7.34 2.66 6.68 3 6 C3.66 6 4.32 6 5 6 C5 5.34 5 4.68 5 4 C6.65 3.67 8.3 3.34 10 3 C9.52949219 4.134375 9.05898438 5.26875 8.57421875 6.4375 C7.94524386 7.95830495 7.31634149 9.47913989 6.6875 11 C6.37876953 11.74378906 6.07003906 12.48757812 5.75195312 13.25390625 C3.73557123 18.13567294 1.82988541 23.04523335 0 28 C-1.32 28 -2.64 28 -4 28 C-6.13450488 18.39472803 -2.97379931 9.13947655 0 0 Z " fill="#7CBED9" transform="translate(35,53)"/>
<path d="M0 0 C0.33 0 0.66 0 1 0 C1.09765625 6.15234375 1.09765625 6.15234375 1 8 C0.67 8.33 0.34 8.66 0 9 C-0.54727773 11.66500458 -1.04265911 14.31935683 -1.5 17 C-1.635271 17.772229 -1.77054199 18.54445801 -1.90991211 19.34008789 C-2.60190444 23.36703406 -3.19476489 27.36566944 -3.5625 31.4375 C-4 35 -4 35 -6 37 C-6.55497974 41.88382171 -5.31669534 44.75272521 -3 49 C-3 49.66 -3 50.32 -3 51 C-1.68 51.33 -0.36 51.66 1 52 C1 52.66 1 53.32 1 54 C6.28 54 11.56 54 17 54 C16.67 53.01 16.34 52.02 16 51 C17.98 50.505 17.98 50.505 20 50 C20 49.34 20 48.68 20 48 C21.98 47.505 21.98 47.505 24 47 C21.37351608 51.97649586 18.41260386 55.19579871 13 57 C7.16738002 57.38884133 3.16691219 57.06187389 -2 54 C-7.33293008 48.88326979 -8.80158142 44.26488295 -9 37 C-8.63617978 33.93170446 -7.91909771 31.01122692 -7.12890625 28.02734375 C-6.9277269 27.21882462 -6.72654755 26.41030548 -6.51927185 25.57728577 C-5.88122028 23.02685498 -5.22230169 20.48238045 -4.5625 17.9375 C-4.12295104 16.19631584 -3.68478681 14.45478149 -3.24804688 12.71289062 C-2.18131727 8.47104715 -1.09585601 4.23440798 0 0 Z " fill="#3D69A1" transform="translate(48,86)"/>
<path d="M0 0 C0.81082031 -0.06058594 1.62164062 -0.12117188 2.45703125 -0.18359375 C5.53838779 0.51731568 6.11802583 1.238398 8.26806641 3.42871094 C12.54165205 7.17875458 16.1059946 7.29947556 21.62890625 7.19921875 C22.51480942 7.20258743 23.40071259 7.20595612 24.3134613 7.20942688 C26.17672563 7.20912928 28.04004069 7.19399813 29.90307617 7.16479492 C32.74615465 7.12505375 35.58457692 7.14412636 38.42773438 7.16992188 C40.24480965 7.16236337 42.06187465 7.1514105 43.87890625 7.13671875 C44.72280411 7.14370285 45.56670197 7.15068695 46.43617249 7.15788269 C52.42194399 7.01541559 54.93996899 5.64425602 59.1875 1.4375 C61.59295638 0.23477181 63.13746953 0.33678528 65.8125 0.375 C67.03839844 0.38853516 67.03839844 0.38853516 68.2890625 0.40234375 C68.91554688 0.41394531 69.54203125 0.42554688 70.1875 0.4375 C70.1875 0.7675 70.1875 1.0975 70.1875 1.4375 C66.5575 2.0975 62.9275 2.7575 59.1875 3.4375 C58.8575 4.7575 58.5275 6.0775 58.1875 7.4375 C49.47857537 13.24344975 32.93927081 10.49560686 22.9375 9.875 C21.87901855 9.82633789 20.82053711 9.77767578 19.72998047 9.72753906 C13.51781859 9.25738662 9.91177496 8.30957219 5.58642578 3.69946289 C4.14571284 2.11654295 4.14571284 2.11654295 1.3125 2.4375 C0.28125 2.7675 -0.75 3.0975 -1.8125 3.4375 C-3.34983104 3.82989569 -4.89193876 4.20388939 -6.4375 4.5625 C-7.17226562 4.75070313 -7.90703125 4.93890625 -8.6640625 5.1328125 C-11.01275525 5.46589983 -12.57112577 5.1575795 -14.8125 4.4375 C-9.76982647 1.80155702 -5.67865734 0.29511133 0 0 Z " fill="#4272A4" transform="translate(75.8125,53.5625)"/>
<path d="M0 0 C0.99 0.33 1.98 0.66 3 1 C3.28875 1.763125 3.5775 2.52625 3.875 3.3125 C5.32882263 6.78552074 6.77944292 8.06766575 10 10 C12.3329866 10.04022391 14.66706666 10.04320247 17 10 C19.18788297 11.45858864 19.80533678 12.53580308 20.8125 14.9375 C21.05160495 17.56765449 20.433564 18.81192864 19 21 C16.17116253 22.41441874 14.12623255 22.31900332 11 22 C8.74650767 19.90192093 8.06450639 18.62893734 7.75 15.5625 C6.84698296 12.47719179 6.145236 12.26483126 3.5 10.625 C0.26485872 8.54337221 0.07082444 8.26559165 -1 4.25 C-1 1 -1 1 0 0 Z M13 14 C13 15.32 13 16.64 13 18 C14.32 17.67 15.64 17.34 17 17 C16.34 16.01 15.68 15.02 15 14 C14.34 14 13.68 14 13 14 Z " fill="#436188" transform="translate(116,116)"/>
<path d="M0 0 C0.66 0 1.32 0 2 0 C2 3.63 2 7.26 2 11 C-2.60965607 12.84386243 -4.41517285 13.18886525 -9.125 13 C-13.86502866 12.75004066 -13.86502866 12.75004066 -18 15 C-20.5625 14.875 -20.5625 14.875 -23 14 C-24.375 12.125 -24.375 12.125 -25 10 C-24.67 9.01 -24.34 8.02 -24 7 C-20.535 6.505 -20.535 6.505 -17 6 C-16.67 6.99 -16.34 7.98 -16 9 C-11.05 9 -6.1 9 -1 9 C-1.020625 7.700625 -1.04125 6.40125 -1.0625 5.0625 C-1.08399454 3.70834367 -1.07148199 2.35243917 -1 1 C-0.67 0.67 -0.34 0.34 0 0 Z " fill="#94C3D8" transform="translate(109,116)"/>
<path d="M0 0 C0 0.66 0 1.32 0 2 C0.66 2.33 1.32 2.66 2 3 C1.35933594 2.96519531 0.71867187 2.93039063 0.05859375 2.89453125 C-5.81886488 2.71058694 -9.86034212 3.06305264 -15 6 C-17.56571055 8.52990993 -17.98329489 9.8031024 -18.29296875 13.453125 C-18.25816406 14.70609375 -18.22335938 15.9590625 -18.1875 17.25 C-18.16042969 18.51328125 -18.13335937 19.7765625 -18.10546875 21.078125 C-18.07066406 22.04234375 -18.03585938 23.0065625 -18 24 C-21.19408396 21.8706107 -22.09402386 20.23187259 -24 17 C-24.66 16.67 -25.32 16.34 -26 16 C-25.525625 14.948125 -25.05125 13.89625 -24.5625 12.8125 C-23.56064317 10.5165781 -22.96025423 8.75016944 -22.5625 6.25 C-21.82838774 3.31355095 -20.5225397 2.54607272 -18 1 C-18 1.66 -18 2.32 -18 3 C-17.28714844 2.69964844 -16.57429688 2.39929688 -15.83984375 2.08984375 C-10.04140778 -0.21236165 -6.09668249 -1.625782 0 0 Z " fill="#2F7AC0" transform="translate(80,70)"/>
<path d="M0 0 C1.39935013 2.79870027 1.25265405 4.90498792 1 8 C-0.125 9.875 -0.125 9.875 -2 11 C-5.11811483 11.38976435 -7.11019567 11.50422245 -9.875 9.9375 C-11.68287817 6.82393204 -11.50098542 4.50689795 -11 1 C-7.19776074 -2.69040869 -4.59477125 -2.192959 0 0 Z M-6 3 C-6 3.99 -6 4.98 -6 6 C-5.34 6 -4.68 6 -4 6 C-4 5.01 -4 4.02 -4 3 C-4.66 3 -5.32 3 -6 3 Z " fill="#9DEAE2" transform="translate(157,11)"/>
<path d="M0 0 C0.86066574 0.00007553 1.72133148 0.00015106 2.608078 0.00022888 C3.53316666 0.00539017 4.45825531 0.01055145 5.41137695 0.01586914 C6.36156204 0.01728409 7.31174713 0.01869904 8.29072571 0.02015686 C11.3270685 0.02575664 14.36333768 0.03830907 17.3996582 0.05102539 C19.45759985 0.05604042 21.51554265 0.06060332 23.57348633 0.06469727 C28.61973867 0.07572599 33.66593595 0.09299046 38.7121582 0.11352539 C39.2071582 1.59852539 39.2071582 1.59852539 39.7121582 3.11352539 C38.40021484 3.09257813 37.08827148 3.07163086 35.73657227 3.05004883 C30.86884476 2.97764569 26.00116485 2.93172426 21.13305664 2.89379883 C19.02620439 2.87368413 16.91940795 2.84638872 14.81274414 2.81176758 C11.78428373 2.76324371 8.75656142 2.74055523 5.7277832 2.72290039 C4.78598206 2.70225525 3.84418091 2.68161011 2.87384033 2.66033936 C-2.33633176 2.586574 -2.33633176 2.586574 -6.80737305 4.99047852 C-7.29592773 5.69108398 -7.78448242 6.39168945 -8.2878418 7.11352539 C-9.13088867 8.28141602 -9.13088867 8.28141602 -9.9909668 9.47290039 C-10.75666992 10.65625977 -10.75666992 10.65625977 -11.5378418 11.86352539 C-12.31901367 13.06235352 -12.31901367 13.06235352 -13.1159668 14.28540039 C-13.50268555 14.88868164 -13.8894043 15.49196289 -14.2878418 16.11352539 C-15.2878418 13.11352539 -15.2878418 13.11352539 -13.9753418 10.42602539 C-13.4184668 9.66290039 -12.8615918 8.89977539 -12.2878418 8.11352539 C-11.6278418 8.11352539 -10.9678418 8.11352539 -10.2878418 8.11352539 C-9.9784668 7.32977539 -9.6690918 6.54602539 -9.3503418 5.73852539 C-8.2878418 3.11352539 -8.2878418 3.11352539 -7.2878418 1.11352539 C-4.50722205 0.18665214 -2.86732321 -0.00840857 0 0 Z " fill="#4575AB" transform="translate(91.287841796875,110.886474609375)"/>
<path d="M0 0 C2.23776293 3.3566444 3.04780584 6.51492095 3.98046875 10.37109375 C4.15757889 11.0898317 4.33468903 11.80856964 4.51716614 12.54908752 C4.8891114 14.06721275 5.25791068 15.58611174 5.6237793 17.10571289 C6.18525151 19.42819931 6.76292294 21.74625122 7.34179688 24.06445312 C7.70151493 25.54142491 8.06027124 27.01863133 8.41796875 28.49609375 C8.59184616 29.18787216 8.76572357 29.87965057 8.94487 30.59239197 C9.75543891 34.02206907 10.30882926 36.65402842 9 40 C8.34 38.02 7.68 36.04 7 34 C6.67 34.99 6.34 35.98 6 37 C5.01 37 4.02 37 3 37 C2.505 35.515 2.505 35.515 2 34 C2.33 33.34 2.66 32.68 3 32 C2.39421747 29.98072489 1.73080266 27.97746603 1 26 C1.66 25.67 2.32 25.34 3 25 C2.88544319 23.08268082 2.75793742 21.1661325 2.625 19.25 C2.55539063 18.18265625 2.48578125 17.1153125 2.4140625 16.015625 C2.01868822 13.13610663 1.28990254 11.53819533 0 9 C-0.1953125 6.640625 -0.1953125 6.640625 -0.125 4.25 C-0.10695312 3.45078125 -0.08890625 2.6515625 -0.0703125 1.828125 C-0.04710937 1.22484375 -0.02390625 0.6215625 0 0 Z " fill="#2F68AA" transform="translate(167,83)"/>
<path d="M0 0 C3.0625 0.3125 3.0625 0.3125 4.9375 1.375 C6.68223477 4.37982099 6.37085443 6.92060131 6.0625 10.3125 C4.0625 12.3125 4.0625 12.3125 1.1875 12.6875 C-1.9375 12.3125 -1.9375 12.3125 -4.375 10.6875 C-5.9375 8.3125 -5.9375 8.3125 -5.8125 5.1875 C-4.6523027 1.37542316 -4.01663759 0.42730187 0 0 Z M0.0625 4.3125 C0.0625 5.6325 0.0625 6.9525 0.0625 8.3125 C0.7225 7.9825 1.3825 7.6525 2.0625 7.3125 C1.7325 6.3225 1.4025 5.3325 1.0625 4.3125 C0.7325 4.3125 0.4025 4.3125 0.0625 4.3125 Z " fill="#A0D0EA" transform="translate(68.9375,149.6875)"/>
<path d="M0 0 C1.8125 1.25 1.8125 1.25 3 3 C3.375 5.5 3.375 5.5 3 8 C1.625 9.625 1.625 9.625 0 11 C-0.99 12.485 -0.99 12.485 -2 14 C-2 13.34 -2 12.68 -2 12 C-2.78375 11.87625 -3.5675 11.7525 -4.375 11.625 C-7 11 -7 11 -9 9 C-9.375 5.5625 -9.375 5.5625 -9 2 C-6.18112246 -1.3408919 -4.01115641 -1.4399023 0 0 Z M-5 4 C-5 4.99 -5 5.98 -5 7 C-3.68 7 -2.36 7 -1 7 C-1.33 6.01 -1.66 5.02 -2 4 C-2.99 4 -3.98 4 -5 4 Z " fill="#4F82AC" transform="translate(176,34)"/>
<path d="M0 0 C3.465 1.485 3.465 1.485 7 3 C5.85685247 7.7358969 4.96149828 10.89504189 1 14 C-2.25 14.25 -2.25 14.25 -5 14 C-5.2475 14.763125 -5.495 15.52625 -5.75 16.3125 C-7.10995558 19.2364045 -8.31585826 20.30004356 -11 22 C-11.66 21.67 -12.32 21.34 -13 21 C-12.02065076 19.32111559 -11.01656081 17.65661761 -10 16 C-9.54625 15.236875 -9.0925 14.47375 -8.625 13.6875 C-7 12 -7 12 -4.3125 11.75 C-3.549375 11.8325 -2.78625 11.915 -2 12 C-1.06213918 6.94990405 -1.06213918 6.94990405 -2 2 C-1.34 2 -0.68 2 0 2 C0 1.34 0 0.68 0 0 Z " fill="#3684C2" transform="translate(156,80)"/>
<path d="M0 0 C2.3125 1.3125 2.3125 1.3125 4.3125 3.3125 C4.75 5.6875 4.75 5.6875 4.3125 8.3125 C2.125 10.6875 2.125 10.6875 -0.6875 12.3125 C-3.3125 12.375 -3.3125 12.375 -5.6875 11.3125 C-7.65806425 8.88213742 -8.6875 7.34882343 -8.6875 4.1875 C-6.71217544 0.48376646 -4.0803658 -1.04381451 0 0 Z M-3.6875 4.3125 C-3.3575 5.6325 -3.0275 6.9525 -2.6875 8.3125 C-1.6975 7.9825 -0.7075 7.6525 0.3125 7.3125 C-0.0175 6.3225 -0.3475 5.3325 -0.6875 4.3125 C-1.6775 4.3125 -2.6675 4.3125 -3.6875 4.3125 Z " fill="#6698BB" transform="translate(192.6875,54.6875)"/>
<path d="M0 0 C2.31 0.33 4.62 0.66 7 1 C7 1.99 7 2.98 7 4 C7.66 4.33 8.32 4.66 9 5 C12.18518859 10.93067101 10.60172348 16.7501378 9 23 C7.74261567 26.32837029 7.09504758 26.75457333 4 29 C-0.31036653 30.24389498 -4.50381502 31.10083792 -9 31 C-10.8984375 29.52734375 -10.8984375 29.52734375 -12 28 C-10.2675 28.1546875 -10.2675 28.1546875 -8.5 28.3125 C-3.33972109 28.30333432 0.15775592 26.34761036 4 23 C6.76640111 19.10974844 7.53860648 15.64393448 7.359375 10.95703125 C6.52926848 6.43655988 3.32762013 2.99485812 0 0 Z " fill="#3E8FC2" transform="translate(82,73)"/>
<path d="M0 0 C2.60691842 2.60691842 2.70416963 4.37607794 3 8 C1 11 1 11 -1.375 11.8125 C-4.32703618 12.02335973 -5.57434783 11.64597826 -8 10 C-9.41441874 7.17116253 -9.31900332 5.12623255 -9 2 C-6.12524616 -1.3006433 -4.03854228 -1.38160657 0 0 Z M-4 3 C-4.33 4.32 -4.66 5.64 -5 7 C-3.68 6.67 -2.36 6.34 -1 6 C-1.33 5.01 -1.66 4.02 -2 3 C-2.66 3 -3.32 3 -4 3 Z " fill="#46749C" transform="translate(28,84)"/>
<path d="M0 0 C-0.99 0.33 -1.98 0.66 -3 1 C-2.34 1.66 -1.68 2.32 -1 3 C-1.99 3.33 -2.98 3.66 -4 4 C-4.33 5.98 -4.66 7.96 -5 10 C-6.98 10 -8.96 10 -11 10 C-11 12.31 -11 14.62 -11 17 C-11.33 17 -11.66 17 -12 17 C-12.12375 15.865625 -12.2475 14.73125 -12.375 13.5625 C-12.58125 12.386875 -12.7875 11.21125 -13 10 C-13.66 9.67 -14.32 9.34 -15 9 C-13.64908476 4.57882285 -11.8349855 2.556657 -8 0 C-4.98060374 -1.18945913 -3.06751566 -0.98598718 0 0 Z " fill="#93ECF7" transform="translate(76,73)"/>
<path d="M0 0 C2.4375 0.8125 2.4375 0.8125 4.4375 2.8125 C3.86057692 9.38942308 3.86057692 9.38942308 2.4375 10.8125 C-0.5 11 -0.5 11 -3.5625 10.8125 C-5.5625 8.8125 -5.5625 8.8125 -5.875 5.875 C-5.5625 2.8125 -5.5625 2.8125 -4.375 0.875 C-2.5625 -0.1875 -2.5625 -0.1875 0 0 Z " fill="#93EBF4" transform="translate(141.5625,70.1875)"/>
<path d="M0 0 C-3.07987208 3.55369855 -5.59478956 4.56156394 -10 6 C-11.70250393 7.28725907 -13.37064759 8.62131719 -15 10 C-15.845625 10.433125 -16.69125 10.86625 -17.5625 11.3125 C-20.97479586 13.67485867 -22.12562468 16.32067068 -24 20 C-25.98 20 -27.96 20 -30 20 C-24.32756332 12.83481683 -9.95368689 -3.31789563 0 0 Z " fill="#88D8E0" transform="translate(76,16)"/>
<path d="M0 0 C0.99 0.33 1.98 0.66 3 1 C4.46231757 5.25401476 3.46137122 7.74881956 1.76953125 11.796875 C0.49726097 15.43931377 0.25709168 19.17022048 0 23 C-0.99 22.67 -1.98 22.34 -3 22 C-3.33 17.71 -3.66 13.42 -4 9 C-2.68 8.34 -1.36 7.68 0 7 C0 4.69 0 2.38 0 0 Z " fill="#AAF5F2" transform="translate(40,80)"/>
<path d="M0 0 C0.33 0.66 0.66 1.32 1 2 C1.53625 2.268125 2.0725 2.53625 2.625 2.8125 C6.04769723 4.52384862 9.35354799 6.18586645 12 9 C12.4375 12.8125 12.4375 12.8125 12 16 C11.34 16.33 10.68 16.66 10 17 C8 16 8 16 7.25 13.75 C5.15100551 9.13221212 1.12861229 6.75240819 -3 4 C-2.01 2.68 -1.02 1.36 0 0 Z " fill="#A8E5E9" transform="translate(91,41)"/>
<path d="M0 0 C-3.87668815 2.58445877 -7.50863347 3.81806144 -12 5 C-14.00361307 5.65572791 -16.00491933 6.31875294 -18 7 C-17.72411969 11.67538034 -17.72411969 11.67538034 -15.625 15.6875 C-14.820625 16.3371875 -14.820625 16.3371875 -14 17 C-10.46152816 20.67456691 -10.40947164 24.08634027 -10 29 C-13.18815128 26.24431088 -15.11375729 22.73248732 -17.1875 19.125 C-17.55552734 18.51269531 -17.92355469 17.90039062 -18.30273438 17.26953125 C-21.96413441 10.92491597 -21.96413441 10.92491597 -21 7 C-17.54717119 4.28429195 -13.44640147 2.84112241 -9.375 1.25 C-8.24835938 0.80140625 -7.12171875 0.3528125 -5.9609375 -0.109375 C-3 -1 -3 -1 0 0 Z " fill="#3D689A" transform="translate(98,135)"/>
<path d="M0 0 C0.66 0.33 1.32 0.66 2 1 C0 4 -2 7 -4 10 C-3.65351369 13.9845926 -2.60913531 17.35262664 -1 21 C-1.99 21.33 -2.98 21.66 -4 22 C-4.66 21.34 -5.32 20.68 -6 20 C-6.99 22.31 -7.98 24.62 -9 27 C-9.33 27 -9.66 27 -10 27 C-9.1801657 16.83405465 -7.44156091 7.44156091 0 0 Z " fill="#3976B2" transform="translate(59,59)"/>
<path d="M0 0 C0.81082031 -0.06058594 1.62164062 -0.12117188 2.45703125 -0.18359375 C5.52784022 0.51491645 6.13852892 1.23918069 8.296875 3.41015625 C12.88895599 7.6264818 17.64005928 7.32807564 23.625 7.3125 C25.15157227 7.3434375 25.15157227 7.3434375 26.70898438 7.375 C29.20264843 7.42182937 31.69348889 7.4419667 34.1875 7.4375 C29.69069873 10.0045641 25.92422914 9.66191018 20.875 9.4375 C19.63073242 9.42783203 19.63073242 9.42783203 18.36132812 9.41796875 C12.60781881 9.17275209 9.67242957 7.87200435 5.65893555 3.71484375 C4.15040795 2.12338437 4.15040795 2.12338437 1.3125 2.4375 C0.28125 2.7675 -0.75 3.0975 -1.8125 3.4375 C-3.34983104 3.82989569 -4.89193876 4.20388939 -6.4375 4.5625 C-7.17226562 4.75070313 -7.90703125 4.93890625 -8.6640625 5.1328125 C-11.01275525 5.46589983 -12.57112577 5.1575795 -14.8125 4.4375 C-9.76982647 1.80155702 -5.67865734 0.29511133 0 0 Z " fill="#476E96" transform="translate(75.8125,53.5625)"/>
<path d="M0 0 C3 1 3 1 4.1875 2.875 C5 5 5 5 5 8 C3.02 8 1.04 8 -1 8 C-1 10.64 -1 13.28 -1 16 C-3.2477975 13.94766315 -4.0022242 12.99332739 -5 10 C-8.00847418 8.77479736 -8.00847418 8.77479736 -11 8 C-9 7 -9 7 -6.5 6.75 C-5.675 6.5025 -4.85 6.255 -4 6 C-2.76709799 3.54295238 -2.76709799 3.54295238 -2 1 C-1.34 0.67 -0.68 0.34 0 0 Z " fill="#3484C8" transform="translate(137,83)"/>
<path d="M0 0 C0.99 0.495 0.99 0.495 2 1 C2 1.66 2 2.32 2 3 C2.66 3 3.32 3 4 3 C4.33 4.32 4.66 5.64 5 7 C6.32 7.33 7.64 7.66 9 8 C9 8.66 9 9.32 9 10 C14.28 10 19.56 10 25 10 C24.67 9.01 24.34 8.02 24 7 C25.32 6.67 26.64 6.34 28 6 C28 5.34 28 4.68 28 4 C29.32 3.67 30.64 3.34 32 3 C29.37351608 7.97649586 26.41260386 11.19579871 21 13 C15.16738002 13.38884133 11.16691219 13.06187389 6 10 C0 3.52317881 0 3.52317881 0 0 Z " fill="#3E6795" transform="translate(40,130)"/>
<path d="M0 0 C0.94875 0.04125 1.8975 0.0825 2.875 0.125 C4.25625018 2.88750036 4.06579306 5.07231099 3.875 8.125 C1.875 10.125 1.875 10.125 -0.625 10.375 C-3.125 10.125 -3.125 10.125 -5.125 8.125 C-5.375 5.125 -5.375 5.125 -5.125 2.125 C-3.125 0.125 -3.125 0.125 0 0 Z " fill="#8DE3F7" transform="translate(141.125,91.875)"/>
<path d="M0 0 C0.33 0 0.66 0 1 0 C2.5660349 6.06838523 3.18482809 12.44858029 0 18 C-1.32 18 -2.64 18 -4 18 C-5.25 11.375 -5.25 11.375 -3 8 C-2.60986284 6.0103005 -2.26797351 4.00980131 -2 2 C-1.34 2 -0.68 2 0 2 C0 1.34 0 0.68 0 0 Z " fill="#6CBCE5" transform="translate(35,63)"/>
<path d="M0 0 C0.78375 0.04125 1.5675 0.0825 2.375 0.125 C3.96038318 2.64296153 4.4123656 3.80365586 4.0625 6.8125 C3.375 9.125 3.375 9.125 2.375 10.125 C0.37541636 10.16580783 -1.62545254 10.16754356 -3.625 10.125 C-5.00625018 7.36249964 -4.81579306 5.17768901 -4.625 2.125 C-2.625 0.125 -2.625 0.125 0 0 Z " fill="#97F1F5" transform="translate(151.625,80.875)"/>
<path d="M0 0 C-1.74906531 0.64836042 -3.49929219 1.29358784 -5.25 1.9375 C-6.22453125 2.29714844 -7.1990625 2.65679687 -8.203125 3.02734375 C-12.6002557 4.55651351 -16.17860603 5.12153772 -20.859375 5.09765625 C-21.97441406 5.09443359 -23.08945313 5.09121094 -24.23828125 5.08789062 C-25.39714844 5.07951172 -26.55601563 5.07113281 -27.75 5.0625 C-28.92433594 5.05798828 -30.09867188 5.05347656 -31.30859375 5.04882812 C-34.20578072 5.03705094 -37.10286454 5.02060326 -40 5 C-40 4.67 -40 4.34 -40 4 C-39.42032471 3.97494385 -38.84064941 3.9498877 -38.2434082 3.92407227 C-35.59957893 3.80753766 -32.95605591 3.68507318 -30.3125 3.5625 C-29.40048828 3.52318359 -28.48847656 3.48386719 -27.54882812 3.44335938 C-26.66259766 3.40146484 -25.77636719 3.35957031 -24.86328125 3.31640625 C-24.05157471 3.27974854 -23.23986816 3.24309082 -22.40356445 3.20532227 C-19.85346902 2.98748273 -17.4740271 2.66296759 -15 2 C-14.67 1.34 -14.34 0.68 -14 0 C-11.6015625 -0.44921875 -11.6015625 -0.44921875 -8.625 -0.6875 C-7.15933594 -0.81705078 -7.15933594 -0.81705078 -5.6640625 -0.94921875 C-3 -1 -3 -1 0 0 Z " fill="#3C689D" transform="translate(141,155)"/>
<path d="M0 0 C2 4.75 2 4.75 2 7 C-1 9 -1 9 -3.5625 8.875 C-6 8 -6 8 -7.375 6.125 C-8 4 -8 4 -7 1 C-4.53721199 -0.231394 -2.7204945 -0.07159196 0 0 Z " fill="#4E719C" transform="translate(92,122)"/>
<path d="M0 0 C2.5 0.25 2.5 0.25 4.5 2.25 C4.8125 4.75 4.8125 4.75 4.5 7.25 C1.5 9.25 1.5 9.25 -1.125 8.9375 C-3.5 8.25 -3.5 8.25 -4.5 7.25 C-4.6875 4.8125 -4.6875 4.8125 -4.5 2.25 C-2.5 0.25 -2.5 0.25 0 0 Z " fill="#4A8BB6" transform="translate(134.5,39.75)"/>
<path d="M0 0 C2.5 -0.3125 2.5 -0.3125 5 0 C7 2 7 2 7.25 4.5 C7 7 7 7 5 9 C1.875 8.625 1.875 8.625 -1 8 C-1.625 5.6875 -1.625 5.6875 -2 3 C-1.34 2.01 -0.68 1.02 0 0 Z " fill="#4A9DE2" transform="translate(127,82)"/>
<path d="M0 0 C0.5625 1.9375 0.5625 1.9375 1 4 C0 5 0 5 -2.5625 5.0625 C-3.7690625 5.0315625 -3.7690625 5.0315625 -5 5 C-5 5.99 -5 6.98 -5 8 C-5.99 8.33 -6.98 8.66 -8 9 C-8.66 8.34 -9.32 7.68 -10 7 C-9.75 3.9375 -9.75 3.9375 -9 1 C-6.04335481 -0.4783226 -3.25770263 -0.06032783 0 0 Z " fill="#B3F3F8" transform="translate(124,48)"/>
<path d="M0 0 C1.65 0.33 3.3 0.66 5 1 C5.125 7.75 5.125 7.75 4 10 C3.9603287 11.66619446 3.95615553 13.33391013 4 15 C3.01 14.67 2.02 14.34 1 14 C-0.80129616 9.92338238 -1.30216184 6.43170695 -1 2 C-0.67 1.34 -0.34 0.68 0 0 Z " fill="#2C6AAF" transform="translate(177,92)"/>
<path d="M0 0 C0.99 0.33 1.98 0.66 3 1 C3.268125 1.7425 3.53625 2.485 3.8125 3.25 C5.44972186 7.04146115 7.73335126 8.51450639 11 11 C10.67 11.66 10.34 12.32 10 13 C5.94803638 12.37662098 3.10913379 10.62549075 0 8 C-0.9375 4.3125 -0.9375 4.3125 -1 1 C-0.67 0.67 -0.34 0.34 0 0 Z " fill="#94C6E3" transform="translate(116,116)"/>
<path d="M0 0 C-0.33 0.99 -0.66 1.98 -1 3 C-2.65 2.67 -4.3 2.34 -6 2 C-6.103125 2.5775 -6.20625 3.155 -6.3125 3.75 C-7.09792798 6.32049158 -8.30504197 7.93657284 -10 10 C-11.55938978 6.88122044 -11.3607834 4.42744229 -11 1 C-7.16208857 -2.72503168 -4.66089361 -2.05946462 0 0 Z " fill="#A9F0E7" transform="translate(157,11)"/>
<path d="M0 0 C-0.54087318 3.78611227 -2.11722332 5.55400767 -5 8 C-5.66 8 -6.32 8 -7 8 C-7 8.66 -7 9.32 -7 10 C-9.31 10 -11.62 10 -14 10 C-12.33333333 8.33333333 -10.66666667 6.66666667 -9 5 C-8.29875 4.2575 -7.5975 3.515 -6.875 2.75 C-4.67581093 0.69742353 -3.02413373 0 0 0 Z " fill="#B6E4E7" transform="translate(70,37)"/>
<path d="M0 0 C5.78719943 1.87692955 7.45959121 4.8558771 10.125 10.0625 C11.27349605 12.38174977 12.17760961 14.53282882 13 17 C13.66 17 14.32 17 15 17 C19 22.41176471 19 22.41176471 19 25 C18.34 25 17.68 25 17 25 C15.42773438 23.02807617 15.42773438 23.02807617 13.59375 20.29296875 C12.60181641 18.8244043 12.60181641 18.8244043 11.58984375 17.32617188 C10.90019531 16.29041016 10.21054688 15.25464844 9.5 14.1875 C8.81035156 13.16333984 8.12070313 12.13917969 7.41015625 11.08398438 C5.60014849 8.3936707 3.79771995 5.69853397 2 3 C1.34 2.01 0.68 1.02 0 0 Z " fill="#3E6A99" transform="translate(131,114)"/>
<path d="M0 0 C2.15059309 3.53186832 2.3797728 6.66287993 2.625 10.75 C2.69976562 11.92046875 2.77453125 13.0909375 2.8515625 14.296875 C2.90054688 15.18890625 2.94953125 16.0809375 3 17 C1.68 17.33 0.36 17.66 -1 18 C-1.52955234 16.21089097 -2.0483937 14.41860852 -2.5625 12.625 C-2.85253906 11.62726563 -3.14257812 10.62953125 -3.44140625 9.6015625 C-4 7 -4 7 -3 5 C-2.34 6.98 -1.68 8.96 -1 11 C0.25949049 9.96593327 0.25949049 9.96593327 0.09765625 7.71484375 C0.08605469 6.79832031 0.07445312 5.88179688 0.0625 4.9375 C0.04896484 3.55884766 0.04896484 3.55884766 0.03515625 2.15234375 C0.02355469 1.44207031 0.01195312 0.73179688 0 0 Z " fill="#AEE3E9" transform="translate(172,64)"/>
<path d="M0 0 C1.98 0 3.96 0 6 0 C5.01 0.33 4.02 0.66 3 1 C3.33 2.98 3.66 4.96 4 7 C4.99 7 5.98 7 7 7 C7 8.98 7 10.96 7 13 C8.98 13 10.96 13 13 13 C13 11.35 13 9.7 13 8 C13.33 8 13.66 8 14 8 C14 9.98 14 11.96 14 14 C11.36 14 8.72 14 6 14 C6 12.02 6 10.04 6 8 C4.02 8 2.04 8 0 8 C0 5.36 0 2.72 0 0 Z " fill="#3F8BA6" transform="translate(65,83)"/>
<path d="M0 0 C0 4.49585171 -0.5774068 8.73222039 -2 13 C-6.33333333 16 -6.33333333 16 -9 16 C-7.51637716 9.73581469 -3.75837844 5.08486495 0 0 Z " fill="#80CCE4" transform="translate(45,37)"/>
<path d="M0 0 C0 0.66 0 1.32 0 2 C0.66 2.33 1.32 2.66 2 3 C1.35933594 2.96519531 0.71867187 2.93039063 0.05859375 2.89453125 C-7.36207959 2.66228961 -11.76576081 3.84384054 -18 8 C-18 6.35 -18 4.7 -18 3 C-6.66287016 -1.77676538 -6.66287016 -1.77676538 0 0 Z " fill="#398BBD" transform="translate(80,70)"/>
<path d="M0 0 C2.84574968 1.27568089 5.18089981 2.41496289 7 5 C6.6875 7.6875 6.6875 7.6875 6 10 C4.02 10.33 2.04 10.66 0 11 C0.33 10.34 0.66 9.68 1 9 C1.99 9 2.98 9 4 9 C3.67 7.68 3.34 6.36 3 5 C1.02 5 -0.96 5 -3 5 C-3.33 4.34 -3.66 3.68 -4 3 C-2.68 2.01 -1.36 1.02 0 0 Z " fill="#3C689F" transform="translate(128,126)"/>
<path d="M0 0 C0.75410156 0.00451172 1.50820312 0.00902344 2.28515625 0.01367188 C4.14847127 0.02546501 6.01174555 0.04340058 7.875 0.0625 C8.205 0.7225 8.535 1.3825 8.875 2.0625 C8.13894531 2.12308594 7.40289062 2.18367188 6.64453125 2.24609375 C5.66871094 2.32988281 4.69289063 2.41367187 3.6875 2.5 C2.72457031 2.58121094 1.76164062 2.66242187 0.76953125 2.74609375 C-2.11522429 3.00977553 -2.11522429 3.00977553 -4.86328125 3.66015625 C-7.125 4.0625 -7.125 4.0625 -9.125 3.0625 C-9.455 3.7225 -9.785 4.3825 -10.125 5.0625 C-10.125 3.7425 -10.125 2.4225 -10.125 1.0625 C-6.93675432 -0.53162284 -3.49603338 -0.03924735 0 0 Z " fill="#A5F4F6" transform="translate(119.125,42.9375)"/>
<path d="M0 0 C0.33 0 0.66 0 1 0 C1.33 2.97 1.66 5.94 2 9 C3.0725 8.649375 4.145 8.29875 5.25 7.9375 C8.78720743 7.05319814 9.74811124 6.97119449 13 8 C4.96498906 12.07877462 4.96498906 12.07877462 0.9375 11.75 C0.298125 11.5025 -0.34125 11.255 -1 11 C-2.26264601 6.70700357 -1.62950412 4.12168689 0 0 Z " fill="#8AD8E0" transform="translate(117,28)"/>
<path d="M0 0 C5.94 0 11.88 0 18 0 C18 0.33 18 0.66 18 1 C16.96359375 1.02578125 15.9271875 1.0515625 14.859375 1.078125 C13.48954199 1.13441951 12.11975195 1.19176655 10.75 1.25 C9.72712891 1.27126953 9.72712891 1.27126953 8.68359375 1.29296875 C5.3868612 1.45300431 3.3662956 1.71900612 0.71875 3.75 C-1.02891881 6.03785735 -2.68577936 8.3325681 -4.25 10.75 C-5.03117187 11.94882813 -5.03117187 11.94882813 -5.828125 13.171875 C-6.21484375 13.77515625 -6.6015625 14.3784375 -7 15 C-8 12 -8 12 -6.6875 9.3125 C-6.130625 8.549375 -5.57375 7.78625 -5 7 C-4.34 7 -3.68 7 -3 7 C-2.690625 6.21625 -2.38125 5.4325 -2.0625 4.625 C-1 2 -1 2 0 0 Z " fill="#426C98" transform="translate(84,112)"/>
<path d="M0 0 C0.99 0.99 1.98 1.98 3 3 C1.625 5.5 1.625 5.5 0 8 C-0.66 8 -1.32 8 -2 8 C-2.33 8.99 -2.66 9.98 -3 11 C-3.66 10.67 -4.32 10.34 -5 10 C-4.64766839 4.5388601 -4.64766839 4.5388601 -4 2 C-1.9375 0.5 -1.9375 0.5 0 0 Z " fill="#6EC7EA" transform="translate(40,51)"/>
<path d="M0 0 C0.33 0 0.66 0 1 0 C1.09765625 6.15234375 1.09765625 6.15234375 1 8 C0.67 8.33 0.34 8.66 0 9 C-0.56344744 11.85227019 -1.08134945 14.69631608 -1.5625 17.5625 C-1.70107422 18.36880859 -1.83964844 19.17511719 -1.98242188 20.00585938 C-2.32517763 22.00329811 -2.66304388 24.00157472 -3 26 C-3.99 25.67 -4.98 25.34 -6 25 C-4.02 16.75 -2.04 8.5 0 0 Z " fill="#4473A0" transform="translate(48,86)"/>
<path d="M0 0 C1.32 0.66 2.64 1.32 4 2 C4 9.59 4 17.18 4 25 C3.67 25 3.34 25 3 25 C2.98018066 24.40461426 2.96036133 23.80922852 2.93994141 23.19580078 C2.84483874 20.50507847 2.73510158 17.81514852 2.625 15.125 C2.5940625 14.18785156 2.563125 13.25070313 2.53125 12.28515625 C2.49257812 11.38925781 2.45390625 10.49335937 2.4140625 9.5703125 C2.3826416 8.74289551 2.3512207 7.91547852 2.31884766 7.06298828 C2.17400863 4.78013915 2.17400863 4.78013915 0 3 C-0.66 5.64 -1.32 8.28 -2 11 C-2.33 11 -2.66 11 -3 11 C-2.88590407 9.54077307 -2.75834456 8.08259402 -2.625 6.625 C-2.55539063 5.81289062 -2.48578125 5.00078125 -2.4140625 4.1640625 C-2 2 -2 2 0 0 Z " fill="#3B628B" transform="translate(180,77)"/>
<path d="M0 0 C0 0.99 0 1.98 0 3 C-4.12649519 6.89724546 -6.80292816 7.83418326 -12.3125 8.25 C-16.60629127 7.95889551 -19.16676257 6.87750405 -23 5 C-22.34 4.67 -21.68 4.34 -21 4 C-20.34 4.33 -19.68 4.66 -19 5 C-13.1183365 5.6247594 -7.70508042 6.10184491 -2.75 2.5 C-1.8425 1.675 -0.935 0.85 0 0 Z " fill="#3B6392" transform="translate(173,135)"/>
<path d="M0 0 C2.97 0 5.94 0 9 0 C9 1.65 9 3.3 9 5 C6.36 5 3.72 5 1 5 C0.67 3.35 0.34 1.7 0 0 Z " fill="#71C7EA" transform="translate(96,99)"/>
<path d="M0 0 C2.01822917 0.06510417 4.03645833 0.13020833 6.0546875 0.1953125 C6.3846875 1.5153125 6.7146875 2.8353125 7.0546875 4.1953125 C4.25598723 5.59466263 2.14969958 5.44796655 -0.9453125 5.1953125 C-2.8203125 3.6953125 -2.8203125 3.6953125 -3.9453125 2.1953125 C-1.9453125 0.1953125 -1.9453125 0.1953125 0 0 Z " fill="#94E8F2" transform="translate(72.9453125,96.8046875)"/>
<path d="M0 0 C-0.33 1.65 -0.66 3.3 -1 5 C-4.32534757 6.10844919 -6.62182575 5.84454356 -10 5 C-9.67 3.68 -9.34 2.36 -9 1 C-2.25 -1.125 -2.25 -1.125 0 0 Z " fill="#85BFD8" transform="translate(104,117)"/>
<path d="M0 0 C1.76185304 2.64277956 2.38438582 3.94867484 3.0703125 6.90625 C3.24433594 7.65003906 3.41835937 8.39382812 3.59765625 9.16015625 C3.85869141 10.31837891 3.85869141 10.31837891 4.125 11.5 C4.39763672 12.65822266 4.39763672 12.65822266 4.67578125 13.83984375 C5.39270041 16.95008704 6 19.79781695 6 23 C5.01 23 4.02 23 3 23 C2.92652344 21.98679687 2.92652344 21.98679687 2.8515625 20.953125 C2.77679688 20.06109375 2.70203125 19.1690625 2.625 18.25 C2.55539063 17.36828125 2.48578125 16.4865625 2.4140625 15.578125 C2.13680277 13.0131791 2.13680277 13.0131791 0.96875 10.96875 C-0.20861594 8.57603857 -0.20291358 6.89906174 -0.125 4.25 C-0.10695312 3.45078125 -0.08890625 2.6515625 -0.0703125 1.828125 C-0.04710937 1.22484375 -0.02390625 0.6215625 0 0 Z " fill="#40689C" transform="translate(167,83)"/>
<path d="M0 0 C0.66 0.99 1.32 1.98 2 3 C0.8125 5.4375 0.8125 5.4375 -1 8 C-3.6875 8.8125 -3.6875 8.8125 -6 9 C-6 9.66 -6 10.32 -6 11 C-6.99 10.67 -7.98 10.34 -9 10 C-8.67 8.02 -8.34 6.04 -8 4 C-6.33388095 3.957279 -4.66617115 3.95936168 -3 4 C-2.67 4.33 -2.34 4.66 -2 5 C-1.34 3.35 -0.68 1.7 0 0 Z " fill="#3069AC" transform="translate(74,125)"/>
<path d="M0 0 C0.66 0 1.32 0 2 0 C1.05542371 6.76761128 0.06997835 12.8600433 -3 19 C-3.66 18.34 -4.32 17.68 -5 17 C-4.34 17 -3.68 17 -3 17 C-3.03480469 16.443125 -3.06960937 15.88625 -3.10546875 15.3125 C-3.313323 9.45298962 -2.34325807 5.3699664 0 0 Z " fill="#AADFE4" transform="translate(43,86)"/>
<path d="M0 0 C0.33 0.99 0.66 1.98 1 3 C0.34 3.66 -0.32 4.32 -1 5 C-8.42857143 1.85714286 -8.42857143 1.85714286 -12 0 C-7.47712313 -2.46702375 -4.70575781 -1.90040219 0 0 Z " fill="#9CF3FC" transform="translate(83,74)"/>
<path d="M0 0 C0.66 0.33 1.32 0.66 2 1 C2.1875 4.375 2.1875 4.375 2 8 C-1 10 -1 10 -3.6875 9.625 C-4.450625 9.41875 -5.21375 9.2125 -6 9 C-5.67 7.68 -5.34 6.36 -5 5 C-3.33333333 5 -1.66666667 5 0 5 C-0.66 3.68 -1.32 2.36 -2 1 C-1.34 0.67 -0.68 0.34 0 0 Z " fill="#5D8AAE" transform="translate(193,57)"/>
<path d="M0 0 C1 3 1 3 0.22265625 5.04296875 C-0.16019531 5.75066406 -0.54304688 6.45835937 -0.9375 7.1875 C-1.31777344 7.90292969 -1.69804688 8.61835938 -2.08984375 9.35546875 C-2.39019531 9.89816406 -2.69054687 10.44085938 -3 11 C-4.32 10.34 -5.64 9.68 -7 9 C-6.82374165 6.62051228 -6.30280227 5.29774151 -4.59765625 3.62109375 C-3.09350908 2.37884514 -1.54870149 1.18623944 0 0 Z " fill="#71A0C0" transform="translate(75,136)"/>
<path d="M0 0 C1.4606285 2.64738916 2 3.89448334 2 7 C0.5625 8.5625 0.5625 8.5625 -1 10 C-1.33 10.66 -1.66 11.32 -2 12 C-3.98 11.34 -5.96 10.68 -8 10 C-8 9.01 -8 8.02 -8 7 C-5.69 7 -3.38 7 -1 7 C-0.67 4.69 -0.34 2.38 0 0 Z " fill="#A8E9E4" transform="translate(38,80)"/>
<path d="M0 0 C0.66 0.33 1.32 0.66 2 1 C1.04578192 2.14926266 0.08647955 3.29430541 -0.875 4.4375 C-1.40867187 5.07558594 -1.94234375 5.71367187 -2.4921875 6.37109375 C-4.46541651 8.50279451 -5.47067087 8.97830618 -8.3828125 9.09765625 C-9.28773437 9.08605469 -10.19265625 9.07445312 -11.125 9.0625 C-12.03507812 9.05347656 -12.94515625 9.04445312 -13.8828125 9.03515625 C-14.58148438 9.02355469 -15.28015625 9.01195312 -16 9 C-16 8.67 -16 8.34 -16 8 C-10.555 7.505 -10.555 7.505 -5 7 C-5.33 6.01 -5.66 5.02 -6 4 C-4.68 3.67 -3.36 3.34 -2 3 C-2 2.34 -2 1.68 -2 1 C-1.34 0.67 -0.68 0.34 0 0 Z " fill="#35679E" transform="translate(70,133)"/>
<path d="M0 0 C2.97 0 5.94 0 9 0 C9.33 1.32 9.66 2.64 10 4 C6.7 4 3.4 4 0 4 C0 2.68 0 1.36 0 0 Z " fill="#87DBF6" transform="translate(111,99)"/>
<path d="M0 0 C0.66 0.33 1.32 0.66 2 1 C1.401875 1.886875 0.80375 2.77375 0.1875 3.6875 C-0.534375 4.780625 -1.25625 5.87375 -2 7 C-2.556875 7.825 -3.11375 8.65 -3.6875 9.5 C-5.1802891 12.34340781 -5.63098214 14.82644638 -6 18 C-6.66 18 -7.32 18 -8 18 C-7.60193043 10.56936805 -5.30256128 5.30256128 0 0 Z " fill="#497BA3" transform="translate(59,59)"/>
<path d="M0 0 C0.99 0 1.98 0 3 0 C4.859375 2.44921875 4.859375 2.44921875 6.75 5.6875 C7.38421875 6.74324219 8.0184375 7.79898437 8.671875 8.88671875 C10.11624986 12.27250335 10.35312132 13.61126195 9 17 C8.01 17.66 7.02 18.32 6 19 C6.29296875 17.01432292 6.5859375 15.02864583 6.87890625 13.04296875 C7.13904799 10.7974658 7.13904799 10.7974658 6 8 C5.34 8 4.68 8 4 8 C2.68 5.36 1.36 2.72 0 0 Z " fill="#8AD7D7" transform="translate(135,13)"/>
<path d="M0 0 C1.65 0 3.3 0 5 0 C6.58538318 2.51796153 7.0373656 3.67865586 6.6875 6.6875 C6 9 6 9 5 10 C3.00041636 10.04080783 0.99954746 10.04254356 -1 10 C-1 9.34 -1 8.68 -1 8 C0.65 7.34 2.3 6.68 4 6 C3.67 4.35 3.34 2.7 3 1 C2.01 0.67 1.02 0.34 0 0 Z " fill="#91E8F8" transform="translate(149,81)"/>
<path d="M0 0 C0.66 0.33 1.32 0.66 2 1 C-2.33333333 5.33333333 -6.66666667 9.66666667 -11 14 C-10.625 11.5625 -10.625 11.5625 -10 9 C-9.34 8.67 -8.68 8.34 -8 8 C-7.34786708 5.97536745 -7.34786708 5.97536745 -7 4 C-6.34 4 -5.68 4 -5 4 C-4.67 3.34 -4.34 2.68 -4 2 C-2.0625 0.8125 -2.0625 0.8125 0 0 Z " fill="#83C7DB" transform="translate(56,41)"/>
<path d="M0 0 C1.5 1 1.5 1 3 3 C3.27345479 5.71846235 3.13491285 8.25677199 3 11 C1.68 11 0.36 11 -1 11 C-1.02688151 9.35425434 -1.04634123 7.70838587 -1.0625 6.0625 C-1.07410156 5.14597656 -1.08570313 4.22945313 -1.09765625 3.28515625 C-1 1 -1 1 0 0 Z " fill="#316DB0" transform="translate(180,79)"/>
<path d="M0 0 C3.87499055 3.25499207 4.99558974 6.22704959 6.3125 11.0625 C6.65925781 12.29097656 7.00601563 13.51945312 7.36328125 14.78515625 C8 18 8 18 7 21 C4.89172945 17.83759418 4.66182535 16.49342531 4.375 12.8125 C4.30023438 11.91144531 4.22546875 11.01039062 4.1484375 10.08203125 C4.07496094 9.05142578 4.07496094 9.05142578 4 8 C3.34 8 2.68 8 2 8 C1.34 5.36 0.68 2.72 0 0 Z " fill="#4676A4" transform="translate(159,61)"/>
<path d="M0 0 C1.98 0.99 3.96 1.98 6 3 C5.81640625 4.828125 5.81640625 4.828125 5 7 C2.71484375 8.484375 2.71484375 8.484375 -0.0625 9.75 C-1.44115234 10.39195312 -1.44115234 10.39195312 -2.84765625 11.046875 C-3.55792969 11.36140625 -4.26820313 11.6759375 -5 12 C-5 11.01 -5 10.02 -5 9 C-4.195625 8.7525 -3.39125 8.505 -2.5625 8.25 C0.1228707 7.27772953 0.1228707 7.27772953 0.875 5.0625 C1.14078645 2.80062726 1.14078645 2.80062726 0 0 Z " fill="#3F6493" transform="translate(148,142)"/>
<path d="M0 0 C4.29 0 8.58 0 13 0 C13 0.33 13 0.66 13 1 C11.35 1 9.7 1 8 1 C8.33 1.99 8.66 2.98 9 4 C6.03 3.67 3.06 3.34 0 3 C0 2.01 0 1.02 0 0 Z " fill="#8CB8CF" transform="translate(94,125)"/>
<path d="M0 0 C2 3 2 3 3 5 C5.01669827 6.13350534 5.01669827 6.13350534 7 7 C5.02 7 3.04 7 1 7 C1 9.31 1 11.62 1 14 C0.67 14 0.34 14 0 14 C-0.12375 12.865625 -0.2475 11.73125 -0.375 10.5625 C-0.58125 9.386875 -0.7875 8.21125 -1 7 C-1.66 6.67 -2.32 6.34 -3 6 C-1.125 1.125 -1.125 1.125 0 0 Z " fill="#86DDE9" transform="translate(64,76)"/>
<path d="M0 0 C-0.1875 2.8125 -0.1875 2.8125 -1 6 C-3.5625 7.875 -3.5625 7.875 -6 9 C-6.66 6.69 -7.32 4.38 -8 2 C-7.01 2 -6.02 2 -5 2 C-2 0 -2 0 0 0 Z " fill="#3063A5" transform="translate(177,128)"/>
<path d="M0 0 C0.66 0 1.32 0 2 0 C1.60446947 1.6510403 1.18286103 3.2958515 0.75 4.9375 C0.40195313 6.31228516 0.40195313 6.31228516 0.046875 7.71484375 C-1 10 -1 10 -3 10.8984375 C-5 11 -5 11 -6.75 9.6875 C-8 8 -8 8 -8 6 C-6.02 6.66 -4.04 7.32 -2 8 C-1.34 5.36 -0.68 2.72 0 0 Z " fill="#426697" transform="translate(96,158)"/>
<path d="M0 0 C0.66 0.33 1.32 0.66 2 1 C1.67 4.3 1.34 7.6 1 11 C-0.32 11 -1.64 11 -3 11 C-3 9.02 -3 7.04 -3 5 C-2.34 5 -1.68 5 -1 5 C-0.67 3.35 -0.34 1.7 0 0 Z " fill="#A0DFED" transform="translate(110,46)"/>
<path d="M0 0 C0.33 0 0.66 0 1 0 C1.19335938 0.98742187 1.38671875 1.97484375 1.5859375 2.9921875 C1.84632813 4.27351563 2.10671875 5.55484375 2.375 6.875 C2.63023437 8.15117188 2.88546875 9.42734375 3.1484375 10.7421875 C3.72237896 14.05924456 3.72237896 14.05924456 6 16 C6 16.99 6 17.98 6 19 C5.01 19 4.02 19 3 19 C0.99134292 12.49577707 -0.38614349 6.8218683 0 0 Z " fill="#3A5E87" transform="translate(175,94)"/>
<path d="M0 0 C0.763125 0.309375 1.52625 0.61875 2.3125 0.9375 C4.18789677 1.67893593 6.08684652 2.36228217 8 3 C8 3.66 8 4.32 8 5 C6.25 6.125 6.25 6.125 4 7 C1.75 6.125 1.75 6.125 0 5 C0 3.35 0 1.7 0 0 Z " fill="#3E6F9E" transform="translate(20,89)"/>
<path d="M0 0 C1.134375 0.020625 2.26875 0.04125 3.4375 0.0625 C3.4375 2.3725 3.4375 4.6825 3.4375 7.0625 C2.839375 6.60875 2.24125 6.155 1.625 5.6875 C-0.06840652 4.42954087 -1.80727086 3.23265276 -3.5625 2.0625 C-3.5625 3.7125 -3.5625 5.3625 -3.5625 7.0625 C-3.8925 7.0625 -4.2225 7.0625 -4.5625 7.0625 C-4.60504356 5.06295254 -4.60330783 3.06208364 -4.5625 1.0625 C-3.5625 0.0625 -3.5625 0.0625 0 0 Z " fill="#438EA6" transform="translate(75.5625,75.9375)"/>
<path d="M0 0 C1.9375 0.375 1.9375 0.375 4 1 C4.33 1.66 4.66 2.32 5 3 C6.89533342 3.46523063 6.89533342 3.46523063 9.0625 3.625 C10.361875 3.74875 11.66125 3.8725 13 4 C13 4.33 13 4.66 13 5 C11.08404032 5.08133791 9.16708068 5.13934367 7.25 5.1875 C5.64898437 5.23970703 5.64898437 5.23970703 4.015625 5.29296875 C0.69972145 4.97082786 -0.59016673 4.22851086 -3 2 C-2.01 2 -1.02 2 0 2 C0 1.34 0 0.68 0 0 Z " fill="#2C67AE" transform="translate(153,136)"/>
<path d="M0 0 C0.99 0.33 1.98 0.66 3 1 C4.1875 4.0625 4.1875 4.0625 5 7 C3.35 7.33 1.7 7.66 0 8 C-0.38063221 5.6739143 -0.71269945 3.33944736 -1 1 C-0.67 0.67 -0.34 0.34 0 0 Z " fill="#9CCDE5" transform="translate(116,116)"/>
<path d="M0 0 C0.66 0 1.32 0 2 0 C1.67 1.32 1.34 2.64 1 4 C-0.65 4 -2.3 4 -4 4 C-4 4.99 -4 5.98 -4 7 C-4.99 7.33 -5.98 7.66 -7 8 C-7 5.66666667 -7 3.33333333 -7 1 C-4.03 1.495 -4.03 1.495 -1 2 C-0.67 1.34 -0.34 0.68 0 0 Z " fill="#A3E5EA" transform="translate(123,49)"/>
<path d="M0 0 C0.6875 2.75 0.6875 2.75 1 6 C-0.4375 8.375 -0.4375 8.375 -2 10 C-3.32 9.67 -4.64 9.34 -6 9 C-4.68 8.34 -3.36 7.68 -2 7 C-2 5.35 -2 3.7 -2 2 C-3.32 1.34 -4.64 0.68 -6 0 C-3 -1 -3 -1 0 0 Z " fill="#38709C" transform="translate(90,36)"/>
<path d="M0 0 C0.78375 0.04125 1.5675 0.0825 2.375 0.125 C1.055 0.455 -0.265 0.785 -1.625 1.125 C-1.625 2.115 -1.625 3.105 -1.625 4.125 C-0.965 4.455 -0.305 4.785 0.375 5.125 C-0.615 5.125 -1.605 5.125 -2.625 5.125 C-2.955 6.775 -3.285 8.425 -3.625 10.125 C-4.285 9.465 -4.945 8.805 -5.625 8.125 C-4.96762948 0.23655378 -4.96762948 0.23655378 0 0 Z " fill="#A7C5DE" transform="translate(68.625,149.875)"/>
<path d="M0 0 C0.66 0 1.32 0 2 0 C2.33 3.96 2.66 7.92 3 12 C0 10 0 10 -2 7 C-1.6875 5 -1.6875 5 -1 3 C-0.67 2.01 -0.34 1.02 0 0 Z " fill="#4799C7" transform="translate(59,82)"/>
<path d="M0 0 C-2.25170312 2.25170312 -3.32987578 2.51474 -6.375 3.1875 C-7.53128906 3.45626953 -7.53128906 3.45626953 -8.7109375 3.73046875 C-11.11082272 4.01304909 -12.71670535 3.73503321 -15 3 C-9.40309575 0.07434551 -6.21474283 -1.55368571 0 0 Z " fill="#416EA2" transform="translate(76,55)"/>
<path d="M0 0 C0.99 0.99 1.98 1.98 3 3 C2.6875 5.6875 2.6875 5.6875 2 8 C-0.475 7.01 -0.475 7.01 -3 6 C-3 6.66 -3 7.32 -3 8 C-3.66 7.67 -4.32 7.34 -5 7 C-3.35 4.69 -1.7 2.38 0 0 Z " fill="#ADE7EC" transform="translate(52,51)"/>
<path d="M0 0 C1.65 0 3.3 0 5 0 C5 1.32 5 2.64 5 4 C4.34 4 3.68 4 3 4 C3 4.66 3 5.32 3 6 C2.01 6 1.02 6 0 6 C-1.125 2.25 -1.125 2.25 0 0 Z " fill="#3367A8" transform="translate(87,124)"/>
<path d="M0 0 C0.66 0 1.32 0 2 0 C2.625 2.8125 2.625 2.8125 3 6 C2.01 7.485 2.01 7.485 1 9 C0.01 8.67 -0.98 8.34 -2 8 C-1.34 8 -0.68 8 0 8 C0 7.34 0 6.68 0 6 C-0.99 5.67 -1.98 5.34 -3 5 C-1.625 2.5 -1.625 2.5 0 0 Z " fill="#4287B0" transform="translate(28,86)"/>
<path d="M0 0 C0.66 0.33 1.32 0.66 2 1 C1.125 7.875 1.125 7.875 0 9 C-1.99958364 9.04080783 -4.00045254 9.04254356 -6 9 C-5.34 7.68 -4.68 6.36 -4 5 C-3.01 5 -2.02 5 -1 5 C-0.67 3.35 -0.34 1.7 0 0 Z " fill="#7FD4ED" transform="translate(144,72)"/>
<path d="M0 0 C2.64 0 5.28 0 8 0 C8 1.32 8 2.64 8 4 C6.02 4 4.04 4 2 4 C1.34 2.68 0.68 1.36 0 0 Z " fill="#A3E4F4" transform="translate(176,58)"/>
<path d="M0 0 C2.125 0.9375 2.125 0.9375 4 2 C4 2.99 4 3.98 4 5 C2.02 5.33 0.04 5.66 -2 6 C-2 4.35 -2 2.7 -2 1 C-1.34 0.67 -0.68 0.34 0 0 Z " fill="#9BF5F3" transform="translate(139,94)"/>
<path d="M0 0 C1.98 0.66 3.96 1.32 6 2 C5.34 3.65 4.68 5.3 4 7 C2.68 6.34 1.36 5.68 0 5 C0 3.35 0 1.7 0 0 Z " fill="#4A9BC8" transform="translate(130,42)"/>
<path d="M0 0 C1.21816406 0.03480469 1.21816406 0.03480469 2.4609375 0.0703125 C3.68683594 0.09738281 3.68683594 0.09738281 4.9375 0.125 C5.87722656 0.15980469 5.87722656 0.15980469 6.8359375 0.1953125 C6.8359375 0.5253125 6.8359375 0.8553125 6.8359375 1.1953125 C2.3809375 1.6903125 2.3809375 1.6903125 -2.1640625 2.1953125 C-1.9784375 2.9790625 -1.7928125 3.7628125 -1.6015625 4.5703125 C-1.1640625 7.1953125 -1.1640625 7.1953125 -2.1640625 9.1953125 C-2.8240625 9.1953125 -3.4840625 9.1953125 -4.1640625 9.1953125 C-4.2890625 5.8203125 -4.2890625 5.8203125 -4.1640625 2.1953125 C-2.1640625 0.1953125 -2.1640625 0.1953125 0 0 Z " fill="#B1E9EA" transform="translate(111.1640625,41.8046875)"/>
<path d="M0 0 C1.65 0 3.3 0 5 0 C2.81482901 2.40575607 0.74080329 3.79535581 -2.1875 5.1875 C-2.90292969 5.53167969 -3.61835937 5.87585937 -4.35546875 6.23046875 C-4.89816406 6.48441406 -5.44085938 6.73835938 -6 7 C-6 6.01 -6 5.02 -6 4 C-5.34 4 -4.68 4 -4 4 C-3.67 3.01 -3.34 2.02 -3 1 C-2.34 1.33 -1.68 1.66 -1 2 C-0.67 1.34 -0.34 0.68 0 0 Z " fill="#84D9DE" transform="translate(68,31)"/>
<path d="M0 0 C2.25 0.0625 2.25 0.0625 5 1 C7.0898813 3.65742095 9 6.53550551 9 10 C7.68 9.67 6.36 9.34 5 9 C4.67 7.02 4.34 5.04 4 3 C2.35 2.67 0.7 2.34 -1 2 C-0.67 1.34 -0.34 0.68 0 0 Z " fill="#87D8D4" transform="translate(127,2)"/>
<path d="M0 0 C1.485 0.99 1.485 0.99 3 2 C3.1875 5.625 3.1875 5.625 3 9 C2.01 9 1.02 9 0 9 C-0.87890625 2.84765625 -0.87890625 2.84765625 -1 1 C-0.67 0.67 -0.34 0.34 0 0 Z " fill="#93C6DD" transform="translate(72,151)"/>
<path d="M0 0 C0.93065133 2.60582371 1.14917407 3.64198224 0.0625 6.25 C-0.4634375 7.11625 -0.4634375 7.11625 -1 8 C-2.32 8 -3.64 8 -5 8 C-5.33 5.69 -5.66 3.38 -6 1 C-5.01 1.495 -5.01 1.495 -4 2 C-3.67 2.99 -3.34 3.98 -3 5 C-2.34 5.33 -1.68 5.66 -1 6 C-0.67 4.02 -0.34 2.04 0 0 Z " fill="#6FB2CE" transform="translate(36,73)"/>
<path d="M0 0 C0.33 0.66 0.66 1.32 1 2 C1.66 2 2.32 2 3 2 C3.33 3.98 3.66 5.96 4 8 C1.50638429 6.79618552 -0.68143083 5.54571278 -3 4 C-2.01 2.68 -1.02 1.36 0 0 Z " fill="#8CD7DE" transform="translate(91,41)"/>
<path d="M0 0 C4.99911924 0.47610659 7.97832683 2.03162219 12 5 C8.15941827 6.28019391 6.6601592 5.60131965 3 4 C1.125 1.875 1.125 1.875 0 0 Z " fill="#42719D" transform="translate(147,55)"/>
<path d="M0 0 C0.99 0 1.98 0 3 0 C4.60725635 3.21451269 4.05748185 6.43612536 4 10 C3.525625 9.34 3.05125 8.68 2.5625 8 C2.046875 7.34 1.53125 6.68 1 6 C0.67 6 0.34 6 0 6 C0 4.02 0 2.04 0 0 Z " fill="#A2E2E2" transform="translate(171,46)"/>
<path d="M0 0 C0.66 0.33 1.32 0.66 2 1 C0.30820672 3.04219706 -0.63727666 3.91793306 -3.26171875 4.51171875 C-4.06222656 4.56972656 -4.86273438 4.62773438 -5.6875 4.6875 C-6.49574219 4.75324219 -7.30398437 4.81898437 -8.13671875 4.88671875 C-9.05904297 4.94279297 -9.05904297 4.94279297 -10 5 C-10.66 4.01 -11.32 3.02 -12 2 C-10.7625 2.04125 -9.525 2.0825 -8.25 2.125 C-4.91529778 2.1426751 -2.91808231 1.68350903 0 0 Z " fill="#4290C4" transform="translate(82,99)"/>
<path d="M0 0 C0.99 0 1.98 0 3 0 C3 1.98 3 3.96 3 6 C1.35 6 -0.3 6 -2 6 C-1.34 4.02 -0.68 2.04 0 0 Z " fill="#286F97" transform="translate(81,84)"/>
<path d="M0 0 C0.28875 0.598125 0.5775 1.19625 0.875 1.8125 C2.04742026 4.19327792 2.04742026 4.19327792 4 7 C4.125 10.1875 4.125 10.1875 4 13 C2 9.25 2 9.25 2 7 C1.01 7 0.02 7 -1 7 C-0.67 4.69 -0.34 2.38 0 0 Z " fill="#306DAD" transform="translate(163,75)"/>
<path d="M0 0 C1.98 0 3.96 0 6 0 C6 1.65 6 3.3 6 5 C4.35 4.67 2.7 4.34 1 4 C0.67 2.68 0.34 1.36 0 0 Z " fill="#9FF5F8" transform="translate(65,77)"/>
<path d="M0 0 C1.32 0 2.64 0 4 0 C4.33 0.66 4.66 1.32 5 2 C5.99 2.66 6.98 3.32 8 4 C5.69 4.33 3.38 4.66 1 5 C0.67 3.35 0.34 1.7 0 0 Z " fill="#416791" transform="translate(124,131)"/>
<path d="M0 0 C1.32 0.33 2.64 0.66 4 1 C4 1.66 4 2.32 4 3 C4.99 3 5.98 3 7 3 C7.66 4.98 8.32 6.96 9 9 C7.87105124 8.06725891 6.74699124 7.12859878 5.625 6.1875 C4.99851563 5.66542969 4.37203125 5.14335938 3.7265625 4.60546875 C2 3 2 3 0 0 Z " fill="#B6F3F1" transform="translate(147,40)"/>
<path d="M0 0 C3.875 1.875 3.875 1.875 5 3 C5.04063832 4.66617115 5.042721 6.33388095 5 8 C4.5875 7.54625 4.175 7.0925 3.75 6.625 C1.93591905 4.94049626 0.24714373 4.00734029 -2 3 C-1.01 3 -0.02 3 1 3 C0.67 2.01 0.34 1.02 0 0 Z " fill="#4C7699" transform="translate(174,34)"/>
<path d="M0 0 C2.31 0 4.62 0 7 0 C7 0.99 7 1.98 7 3 C5.02 3 3.04 3 1 3 C0.67 2.01 0.34 1.02 0 0 Z " fill="#92EDFC" transform="translate(97,100)"/>
<path d="M0 0 C0.99 0.33 1.98 0.66 3 1 C3.33 2.65 3.66 4.3 4 6 C2.66666667 6 1.33333333 6 0 6 C0 4.02 0 2.04 0 0 Z " fill="#9AF6F0" transform="translate(40,80)"/>
<path d="M0 0 C2.5625 0.1875 2.5625 0.1875 4.5625 2.1875 C4.1875 4.3125 4.1875 4.3125 3.5625 6.1875 C3.2325 5.1975 2.9025 4.2075 2.5625 3.1875 C0.9125 3.5175 -0.7375 3.8475 -2.4375 4.1875 C-2.7675 3.1975 -3.0975 2.2075 -3.4375 1.1875 C-2.4375 0.1875 -2.4375 0.1875 0 0 Z " fill="#5B8BAE" transform="translate(134.4375,39.8125)"/>
<path d="M0 0 C1.65 0 3.3 0 5 0 C5.33 0.66 5.66 1.32 6 2 C2.25 5 2.25 5 0 5 C0 3.35 0 1.7 0 0 Z " fill="#73E7E2" transform="translate(126,4)"/>
<path d="M0 0 C0.66 0.33 1.32 0.66 2 1 C2.33 1.99 2.66 2.98 3 4 C1.02 4.33 -0.96 4.66 -3 5 C-3.33 4.34 -3.66 3.68 -4 3 C-2.68 2.01 -1.36 1.02 0 0 Z " fill="#477BA6" transform="translate(128,126)"/>
<path d="M0 0 C-1.75 1.5625 -1.75 1.5625 -4 3 C-6.25 2.6875 -6.25 2.6875 -8 2 C-8 1.34 -8 0.68 -8 0 C-4.71303767 -0.79953138 -3.28976808 -1.09658936 0 0 Z " fill="#A5D6F0" transform="translate(110,126)"/>
<path d="M0 0 C0 0.33 0 0.66 0 1 C-0.94875 1.226875 -1.8975 1.45375 -2.875 1.6875 C-6.19323388 2.69083714 -6.19323388 2.69083714 -7.375 5.625 C-7.58125 6.40875 -7.7875 7.1925 -8 8 C-8.33 8 -8.66 8 -9 8 C-9.1875 5.125 -9.1875 5.125 -9 2 C-5.5647952 -0.29013653 -4.014669 -0.17842973 0 0 Z " fill="#4B9DCD" transform="translate(154,91)"/>
<path d="M0 0 C0.66 0.33 1.32 0.66 2 1 C1.01 2.98 0.02 4.96 -1 7 C-2.32 5.68 -3.64 4.36 -5 3 C-4.34 3 -3.68 3 -3 3 C-3 2.34 -3 1.68 -3 1 C-2.01 0.67 -1.02 0.34 0 0 Z " fill="#86C8E0" transform="translate(43,56)"/>
<path d="M0 0 C1.98 0.495 1.98 0.495 4 1 C4 1.99 4 2.98 4 4 C2.35 4.33 0.7 4.66 -1 5 C-0.67 3.35 -0.34 1.7 0 0 Z " fill="#A0F8F5" transform="translate(66,92)"/>
<path d="M0 0 C0.99 0.99 1.98 1.98 3 3 C2.01 3.495 2.01 3.495 1 4 C1.33 4.99 1.66 5.98 2 7 C1.01 7.495 1.01 7.495 0 8 C-0.38063221 5.6739143 -0.71269945 3.33944736 -1 1 C-0.67 0.67 -0.34 0.34 0 0 Z " fill="#2E66A9" transform="translate(180,79)"/>
<path d="M0 0 C0.94875 0.04125 1.8975 0.0825 2.875 0.125 C2.875 0.785 2.875 1.445 2.875 2.125 C3.535 2.455 4.195 2.785 4.875 3.125 C1.575 2.795 -1.725 2.465 -5.125 2.125 C-3.125 0.125 -3.125 0.125 0 0 Z " fill="#479BC3" transform="translate(77.125,69.875)"/>
<path d="M0 0 C1 3 1 3 -0.4375 6.1875 C-1.2109375 7.5796875 -1.2109375 7.5796875 -2 9 C-2.66 9 -3.32 9 -4 9 C-2.94124926 5.59687262 -1.99097846 2.98646769 0 0 Z " fill="#87C6D7" transform="translate(40,44)"/>
<path d="M0 0 C3.63 0 7.26 0 11 0 C11.33 1.32 11.66 2.64 12 4 C11.34 4 10.68 4 10 4 C9.67 3.34 9.34 2.68 9 2 C6.87423218 1.53348793 6.87423218 1.53348793 4.4375 1.375 C3.61121094 1.30023438 2.78492187 1.22546875 1.93359375 1.1484375 C1.29550781 1.09945312 0.65742187 1.05046875 0 1 C0 0.67 0 0.34 0 0 Z " fill="#A3D8E2" transform="translate(118,42)"/>
<path d="M0 0 C0.99 0.33 1.98 0.66 3 1 C0.525 4.465 0.525 4.465 -2 8 C-2.33 7.01 -2.66 6.02 -3 5 C-1.5625 2.3125 -1.5625 2.3125 0 0 Z " fill="#38659A" transform="translate(79,119)"/>
<path d="M0 0 C0.66 0 1.32 0 2 0 C1.67 2.31 1.34 4.62 1 7 C-0.32 6.34 -1.64 5.68 -3 5 C-3 4.34 -3 3.68 -3 3 C-2.34 3 -1.68 3 -1 3 C-0.67 2.01 -0.34 1.02 0 0 Z " fill="#39679C" transform="translate(181,103)"/>
<path d="M0 0 C5.75 4.75 5.75 4.75 8 7 C5.6875 7.25 5.6875 7.25 3 7 C1.1875 5.1875 1.1875 5.1875 0 3 C0 2.01 0 1.02 0 0 Z " fill="#4698C3" transform="translate(62,94)"/>
<path d="M0 0 C1.98 0 3.96 0 6 0 C5.01 0.495 5.01 0.495 4 1 C4 1.99 4 2.98 4 4 C2.68 3.67 1.36 3.34 0 3 C0 2.01 0 1.02 0 0 Z " fill="#8CC9D3" transform="translate(30,87)"/>
<path d="M0 0 C1.04449911 3.13349732 0.93423645 3.98968256 0 7 C-0.66 7 -1.32 7 -2 7 C-2.33 5.02 -2.66 3.04 -3 1 C-2.01 0.67 -1.02 0.34 0 0 Z " fill="#23638E" transform="translate(71,83)"/>
<path d="M0 0 C0 1.65 0 3.3 0 5 C-1.98 5 -3.96 5 -6 5 C-1.125 0 -1.125 0 0 0 Z " fill="#ABDFE1" transform="translate(62,42)"/>
<path d="M0 0 C0.66 0.33 1.32 0.66 2 1 C2 2.98 2 4.96 2 7 C1.01 7 0.02 7 -1 7 C-1.04254356 5.00045254 -1.04080783 2.99958364 -1 1 C-0.67 0.67 -0.34 0.34 0 0 Z " fill="#3C7095" transform="translate(82,37)"/>
<path d="M0 0 C0.33 0 0.66 0 1 0 C1.125 3.375 1.125 3.375 1 7 C0.34 7.66 -0.32 8.32 -1 9 C-1.99 8.67 -2.98 8.34 -4 8 C-3.34 8 -2.68 8 -2 8 C-1.34 5.36 -0.68 2.72 0 0 Z " fill="#91D7D6" transform="translate(125,4)"/>
<path d="" fill="#FFFFFF" transform="translate(0,0)"/>
<path d="" fill="#FFFFFF" transform="translate(0,0)"/>
<path d="" fill="#FFFFFF" transform="translate(0,0)"/>
<path d="" fill="#FFFFFF" transform="translate(0,0)"/>
<path d="" fill="#FFFFFF" transform="translate(0,0)"/>
<path d="" fill="#FFFFFF" transform="translate(0,0)"/>
<path d="" fill="#FFFFFF" transform="translate(0,0)"/>
<path d="" fill="#FFFFFF" transform="translate(0,0)"/>
<path d="" fill="#FFFFFF" transform="translate(0,0)"/>
<path d="" fill="#FFFFFF" transform="translate(0,0)"/>
<path d="" fill="#FFFFFF" transform="translate(0,0)"/>
<path d="" fill="#FFFFFF" transform="translate(0,0)"/>
<path d="" fill="#FFFFFF" transform="translate(0,0)"/>
<path d="" fill="#FFFFFF" transform="translate(0,0)"/>
<path d="" fill="#FFFFFF" transform="translate(0,0)"/>
<path d="" fill="#FFFFFF" transform="translate(0,0)"/>
<path d="" fill="#FFFFFF" transform="translate(0,0)"/>
<path d="" fill="#FFFFFF" transform="translate(0,0)"/>
<path d="" fill="#FFFFFF" transform="translate(0,0)"/>
<path d="" fill="#FFFFFF" transform="translate(0,0)"/>
<path d="" fill="#FFFFFF" transform="translate(0,0)"/>
<path d="" fill="#FFFFFF" transform="translate(0,0)"/>
<path d="" fill="#FFFFFF" transform="translate(0,0)"/>
<path d="" fill="#FFFFFF" transform="translate(0,0)"/>
<path d="" fill="#FFFFFF" transform="translate(0,0)"/>
<path d="" fill="#FFFFFF" transform="translate(0,0)"/>
<path d="" fill="#FFFFFF" transform="translate(0,0)"/>
<path d="" fill="#FFFFFF" transform="translate(0,0)"/>
<path d="" fill="#00FFFF" transform="translate(0,0)"/>
<path d="" fill="#FFFFFF" transform="translate(0,0)"/>
<path d="" fill="#FFFFFF" transform="translate(0,0)"/>
<path d="" fill="#FFFFFF" transform="translate(0,0)"/>
<path d="" fill="#FFFFFF" transform="translate(0,0)"/>
<path d="" fill="#FFFFFF" transform="translate(0,0)"/>
<path d="" fill="#FFFFFF" transform="translate(0,0)"/>
<path d="" fill="#FFFFFF" transform="translate(0,0)"/>
<path d="" fill="#FFFFFF" transform="translate(0,0)"/>
<path d="" fill="#FFFFFF" transform="translate(0,0)"/>
<path d="" fill="#FFFFFF" transform="translate(0,0)"/>
<path d="" fill="#FFFFFF" transform="translate(0,0)"/>
<path d="" fill="#FFFFFF" transform="translate(0,0)"/>
<path d="" fill="#FFFFFF" transform="translate(0,0)"/>
<path d="" fill="#FFFFFF" transform="translate(0,0)"/>
<path d="" fill="#FFFFFF" transform="translate(0,0)"/>
<path d="" fill="#FFFFFF" transform="translate(0,0)"/>
<path d="" fill="#FFFFFF" transform="translate(0,0)"/>
<path d="" fill="#FFFFFF" transform="translate(0,0)"/>
<path d="" fill="#FFFFFF" transform="translate(0,0)"/>
<path d="" fill="#FFFFFF" transform="translate(0,0)"/>
<path d="" fill="#FFFFFF" transform="translate(0,0)"/>
<path d="" fill="#FFFFFF" transform="translate(0,0)"/>
<path d="" fill="#FFFFFF" transform="translate(0,0)"/>
</svg>
